<svg width="268" height="279" viewBox="0 0 268 279" fill="none" xmlns="http://www.w3.org/2000/svg">
<path opacity="0.1" d="M146.28 115.416C139.436 115.416 133.34 113.725 127.99 110.342C122.641 106.959 118.432 102.082 115.364 95.71C112.375 89.2593 110.88 81.5893 110.88 72.7C110.88 63.8107 112.375 56.18 115.364 49.808C118.432 43.3573 122.641 38.4407 127.99 35.058C133.34 31.6753 139.436 29.984 146.28 29.984C153.124 29.984 159.221 31.6753 164.57 35.058C169.92 38.4407 174.089 43.3573 177.078 49.808C180.146 56.18 181.68 63.8107 181.68 72.7C181.68 81.5893 180.146 89.2593 177.078 95.71C174.089 102.082 169.92 106.959 164.57 110.342C159.221 113.725 153.124 115.416 146.28 115.416ZM146.28 99.25C151.315 99.25 155.248 97.0867 158.08 92.76C160.991 88.4333 162.446 81.7467 162.446 72.7C162.446 63.6533 160.991 56.9667 158.08 52.64C155.248 48.3133 151.315 46.15 146.28 46.15C141.324 46.15 137.391 48.3133 134.48 52.64C131.648 56.9667 130.232 63.6533 130.232 72.7C130.232 81.7467 131.648 88.4333 134.48 92.76C137.391 97.0867 141.324 99.25 146.28 99.25ZM266.606 96.654H253.154V114H234.51V96.654H190.024V83.792L228.964 31.4H249.024L212.916 81.078H235.1V65.62H253.154V81.078H266.606V96.654Z" fill="white"/>
<g filter="url(#filter0_d_1_4637)">
<circle cx="108" cy="164" r="90" fill="#1D1D1D"/>
</g>
<g clip-path="url(#clip0_1_4637)">
<path d="M79.6369 155.473C79.8509 155.687 80.1318 155.794 80.4128 155.794C80.6937 155.794 80.9747 155.687 81.1892 155.473C81.6178 155.044 81.6178 154.349 81.1892 153.92L78.5239 151.255L81.1892 148.59C81.6178 148.161 81.6178 147.466 81.1892 147.038C80.7607 146.609 80.0654 146.609 79.6369 147.038L76.1956 150.479C75.9896 150.685 75.874 150.964 75.874 151.255C75.874 151.546 75.9896 151.825 76.1956 152.031L79.6369 155.473Z" fill="#EF8B54"/>
<path d="M90.5294 151.255L87.8641 153.92C87.4355 154.349 87.4355 155.044 87.8647 155.473C88.0787 155.687 88.3596 155.794 88.6406 155.794C88.9215 155.794 89.2025 155.687 89.4165 155.473L92.8583 152.031C93.2869 151.602 93.2869 150.907 92.8583 150.479L89.4165 147.037C88.9879 146.609 88.2932 146.609 87.8647 147.037C87.4355 147.466 87.4355 148.161 87.8647 148.59L90.5294 151.255Z" fill="#EF8B54"/>
<path d="M82.8904 155.718C83.022 155.77 83.1582 155.794 83.2915 155.794C83.7298 155.794 84.1436 155.53 84.3135 155.098L87.0172 148.215C87.2392 147.651 86.9611 147.014 86.3969 146.792C85.8333 146.57 85.1958 146.848 84.9744 147.412L82.2701 154.295C82.0487 154.859 82.3262 155.497 82.8904 155.718Z" fill="#EF8B54"/>
<path d="M77.593 162.234H84.9876C85.5936 162.234 86.0851 161.742 86.0851 161.136C86.0851 160.53 85.5936 160.038 84.9876 160.038H77.593C76.9864 160.038 76.4955 160.53 76.4955 161.136C76.4955 161.742 76.9864 162.234 77.593 162.234Z" fill="#EF8B54"/>
<path d="M102.019 160.038H89.0181C88.4122 160.038 87.9207 160.53 87.9207 161.136C87.9207 161.742 88.4122 162.234 89.0181 162.234H102.019C102.625 162.234 103.117 161.742 103.117 161.136C103.117 160.53 102.625 160.038 102.019 160.038Z" fill="#EF8B54"/>
<path d="M77.593 166.863H80.743C81.3489 166.863 81.8405 166.372 81.8405 165.765C81.8405 165.159 81.3489 164.668 80.743 164.668H77.593C76.9864 164.668 76.4955 165.159 76.4955 165.765C76.4955 166.372 76.9864 166.863 77.593 166.863Z" fill="#EF8B54"/>
<path d="M98.0031 164.668C97.3966 164.668 96.9056 165.159 96.9056 165.765C96.9056 166.372 97.3966 166.863 98.0031 166.863H99.9211C100.528 166.863 101.019 166.372 101.019 165.765C101.019 165.159 100.528 164.668 99.9211 164.668H98.0031Z" fill="#EF8B54"/>
<path d="M95.114 165.765C95.114 165.159 94.6225 164.668 94.0166 164.668H84.5946C83.9881 164.668 83.4971 165.159 83.4971 165.765C83.4971 166.372 83.9881 166.863 84.5946 166.863H94.0166C94.6225 166.863 95.114 166.372 95.114 165.765Z" fill="#EF8B54"/>
<path d="M102.304 165.765C102.304 166.372 102.796 166.863 103.402 166.863H106.995C107.601 166.863 108.093 166.372 108.093 165.765C108.093 165.159 107.601 164.668 106.995 164.668H103.402C102.796 164.668 102.304 165.159 102.304 165.765Z" fill="#EF8B54"/>
<path d="M96.3266 152.135H100.116C100.723 152.135 101.214 151.644 101.214 151.037C101.214 150.431 100.723 149.94 100.116 149.94H96.3266C95.72 149.94 95.2285 150.431 95.2285 151.037C95.2285 151.644 95.72 152.135 96.3266 152.135Z" fill="#EF8B54"/>
<path d="M104.361 152.135H127.484C128.091 152.135 128.582 151.644 128.582 151.037C128.582 150.431 128.091 149.94 127.484 149.94H104.361C103.754 149.94 103.263 150.431 103.263 151.037C103.263 151.644 103.754 152.135 104.361 152.135Z" fill="#EF8B54"/>
<path d="M123.972 154.769H114.605C113.999 154.769 113.508 155.261 113.508 155.867C113.508 156.473 113.999 156.965 114.605 156.965H123.972C124.578 156.965 125.07 156.473 125.07 155.867C125.07 155.261 124.578 154.769 123.972 154.769Z" fill="#EF8B54"/>
<path d="M111.093 154.769H107.873C107.266 154.769 106.775 155.261 106.775 155.867C106.775 156.473 107.266 156.965 107.873 156.965H111.093C111.699 156.965 112.19 156.473 112.19 155.867C112.19 155.261 111.699 154.769 111.093 154.769Z" fill="#EF8B54"/>
<path d="M96.3266 156.965H104.214C104.82 156.965 105.312 156.473 105.312 155.867C105.312 155.261 104.82 154.769 104.214 154.769H96.3266C95.72 154.769 95.2285 155.261 95.2285 155.867C95.2285 156.473 95.72 156.965 96.3266 156.965Z" fill="#EF8B54"/>
<path d="M94.0301 169.259H86.6361C86.0295 169.259 85.538 169.75 85.538 170.356C85.538 170.962 86.0295 171.454 86.6361 171.454H94.0301C94.6361 171.454 95.1276 170.962 95.1276 170.356C95.1276 169.75 94.6361 169.259 94.0301 169.259Z" fill="#EF8B54"/>
<path d="M83.2738 169.259H77.593C76.9864 169.259 76.4955 169.75 76.4955 170.356C76.4955 170.962 76.9864 171.454 77.593 171.454H83.2738C83.8804 171.454 84.3713 170.962 84.3713 170.356C84.3713 169.75 83.8804 169.259 83.2738 169.259Z" fill="#EF8B54"/>
<path d="M107.434 169.259H97.7748C97.1682 169.259 96.6773 169.75 96.6773 170.356C96.6773 170.962 97.1682 171.454 97.7748 171.454H107.434C108.04 171.454 108.532 170.962 108.532 170.356C108.532 169.75 108.04 169.259 107.434 169.259Z" fill="#EF8B54"/>
<path d="M120.497 163.62H115.215C114.609 163.62 114.117 164.112 114.117 164.718C114.117 165.324 114.609 165.816 115.215 165.816H120.497C121.104 165.816 121.595 165.324 121.595 164.718C121.595 164.112 121.104 163.62 120.497 163.62Z" fill="#EF8B54"/>
<path d="M129.663 165.816H137.119C137.726 165.816 138.217 165.324 138.217 164.718C138.217 164.112 137.726 163.62 137.119 163.62H129.663C129.056 163.62 128.565 164.112 128.565 164.718C128.565 165.324 129.057 165.816 129.663 165.816Z" fill="#EF8B54"/>
<path d="M125.934 163.62H124.226C123.619 163.62 123.127 164.112 123.127 164.718C123.127 165.324 123.619 165.816 124.226 165.816H125.934C126.541 165.816 127.032 165.324 127.032 164.718C127.032 164.112 126.541 163.62 125.934 163.62Z" fill="#EF8B54"/>
<path d="M115.215 177.777H120.497C121.104 177.777 121.595 177.286 121.595 176.68C121.595 176.074 121.104 175.582 120.497 175.582H115.215C114.609 175.582 114.117 176.074 114.117 176.68C114.117 177.286 114.609 177.777 115.215 177.777Z" fill="#EF8B54"/>
<path d="M129.663 177.777H137.119C137.726 177.777 138.217 177.286 138.217 176.68C138.217 176.074 137.726 175.582 137.119 175.582H129.663C129.056 175.582 128.565 176.074 128.565 176.68C128.565 177.286 129.057 177.777 129.663 177.777Z" fill="#EF8B54"/>
<path d="M124.226 177.777H125.934C126.541 177.777 127.032 177.286 127.032 176.68C127.032 176.074 126.541 175.582 125.934 175.582H124.226C123.619 175.582 123.128 176.074 123.128 176.68C123.128 177.286 123.619 177.777 124.226 177.777Z" fill="#EF8B54"/>
<path d="M120.497 187.544H115.215C114.609 187.544 114.117 188.036 114.117 188.642C114.117 189.248 114.609 189.739 115.215 189.739H120.497C121.104 189.739 121.595 189.248 121.595 188.642C121.595 188.036 121.104 187.544 120.497 187.544Z" fill="#EF8B54"/>
<path d="M137.119 187.544H129.663C129.056 187.544 128.565 188.036 128.565 188.642C128.565 189.248 129.056 189.739 129.663 189.739H137.119C137.726 189.739 138.217 189.248 138.217 188.642C138.217 188.036 137.726 187.544 137.119 187.544Z" fill="#EF8B54"/>
<path d="M125.934 187.544H124.226C123.619 187.544 123.127 188.036 123.127 188.642C123.127 189.248 123.619 189.739 124.226 189.739H125.934C126.541 189.739 127.032 189.248 127.032 188.642C127.032 188.036 126.541 187.544 125.934 187.544Z" fill="#EF8B54"/>
<path d="M141.17 128.146H75.8311C73.1675 128.146 71 130.313 71 132.977V186.088C71 188.752 73.1675 190.918 75.8311 190.918H79.9619C80.5679 190.918 81.0594 190.428 81.0594 189.821C81.0594 189.215 80.5679 188.723 79.9619 188.723H75.8311C74.3777 188.723 73.1956 187.541 73.1956 186.088V181.924H113.185V183.816H112.315C111.124 183.816 110.156 184.784 110.156 185.975V188.723H86.6355C86.0296 188.723 85.5381 189.215 85.5381 189.821C85.5381 190.428 86.0296 190.918 86.6355 190.918H97.1893V194.855H93.8751C91.6641 194.855 89.8657 196.654 89.8657 198.865V201.236C89.8657 202.245 90.6862 203.065 91.695 203.065H125.222C126.231 203.065 127.051 202.245 127.051 201.236V198.865C127.051 196.654 125.253 194.855 123.042 194.855H119.727V193.468H140.02C141.21 193.468 142.178 192.499 142.178 191.309V190.792C144.317 190.295 145.917 188.376 145.917 186.088L146 132.977C146 130.313 143.833 128.146 141.17 128.146ZM112.352 179.311V174.049H139.983V179.311H112.352ZM115.38 171.854V169.544H136.954V171.854H115.38ZM136.954 181.506V183.816H115.38V181.506H136.954ZM99.3843 190.918H110.156V191.309C110.156 192.499 111.124 193.468 112.315 193.468H117.532V194.855H99.3843V190.918ZM123.042 197.051C124.042 197.051 124.856 197.864 124.856 198.865V200.87H92.0606V198.865C92.0606 197.864 92.8749 197.051 93.8751 197.051H123.042ZM139.983 191.272H112.352V186.011H139.983V191.272ZM143.722 186.088C143.722 187.151 143.088 188.067 142.179 188.483V185.974C142.179 184.784 141.21 183.816 140.02 183.816H139.149V181.924H143.722V186.088ZM143.722 179.729H142.142C142.165 179.605 142.179 174.013 142.179 174.013C142.179 172.822 141.21 171.854 140.02 171.854H139.149V169.544H140.02C141.21 169.544 142.179 168.576 142.179 167.385V162.051C142.179 160.86 141.21 159.892 140.02 159.892H133.82C133.213 159.892 132.722 160.383 132.722 160.99C132.722 161.596 133.213 162.087 133.82 162.087H139.983V167.349H112.352V162.087H126.99C127.596 162.087 128.087 161.596 128.087 160.99C128.087 160.383 127.596 159.892 126.99 159.892H112.315C111.124 159.892 110.156 160.86 110.156 162.051V167.385C110.156 168.576 111.124 169.544 112.315 169.544H113.185V171.854H112.315C111.124 171.854 110.156 172.822 110.156 174.013C110.156 174.013 110.17 179.605 110.192 179.729H73.1956V143.077H143.722V179.729ZM143.722 140.882H73.2762V132.977C73.2762 131.524 74.4584 130.342 75.9118 130.342H141.086C142.54 130.342 143.722 131.524 143.722 132.977V140.882Z" fill="#EF8B54"/>
<path d="M79.095 132.359C77.3188 132.359 75.874 133.804 75.874 135.58C75.874 137.356 77.3188 138.802 79.095 138.802C80.8711 138.802 82.3165 137.356 82.3165 135.58C82.3165 133.804 80.8711 132.359 79.095 132.359ZM79.095 136.606C78.5296 136.606 78.069 136.146 78.069 135.58C78.069 135.015 78.5296 134.554 79.095 134.554C79.6609 134.554 80.1209 135.015 80.1209 135.58C80.1209 136.146 79.6609 136.606 79.095 136.606Z" fill="#EF8B54"/>
<path d="M87.2965 132.359C85.5203 132.359 84.075 133.804 84.075 135.58C84.075 137.356 85.5203 138.802 87.2965 138.802C89.0726 138.802 90.5174 137.356 90.5174 135.58C90.5174 133.804 89.072 132.359 87.2965 132.359ZM87.2965 136.606C86.7306 136.606 86.2705 136.146 86.2705 135.58C86.2705 135.015 86.7306 134.554 87.2965 134.554C87.8618 134.554 88.3224 135.015 88.3224 135.58C88.3224 136.146 87.8618 136.606 87.2965 136.606Z" fill="#EF8B54"/>
<path d="M95.4972 132.359C93.7211 132.359 92.2763 133.804 92.2763 135.58C92.2763 137.356 93.7211 138.802 95.4972 138.802C97.2734 138.802 98.7188 137.356 98.7188 135.58C98.7188 133.804 97.2734 132.359 95.4972 132.359ZM95.4972 136.606C94.9319 136.606 94.4713 136.146 94.4713 135.58C94.4713 135.015 94.9319 134.554 95.4972 134.554C96.0631 134.554 96.5232 135.015 96.5232 135.58C96.5232 136.146 96.0631 136.606 95.4972 136.606Z" fill="#EF8B54"/>
</g>
<defs>
<filter id="filter0_d_1_4637" x="0" y="59" width="220" height="220" filterUnits="userSpaceOnUse" color-interpolation-filters="sRGB">
<feFlood flood-opacity="0" result="BackgroundImageFix"/>
<feColorMatrix in="SourceAlpha" type="matrix" values="0 0 0 0 0 0 0 0 0 0 0 0 0 0 0 0 0 0 127 0" result="hardAlpha"/>
<feOffset dx="2" dy="5"/>
<feGaussianBlur stdDeviation="10"/>
<feColorMatrix type="matrix" values="0 0 0 0 0 0 0 0 0 0 0 0 0 0 0 0 0 0 0.2 0"/>
<feBlend mode="normal" in2="BackgroundImageFix" result="effect1_dropShadow_1_4637"/>
<feBlend mode="normal" in="SourceGraphic" in2="effect1_dropShadow_1_4637" result="shape"/>
</filter>
<clipPath id="clip0_1_4637">
<rect width="75" height="75" fill="white" transform="translate(71 128)"/>
</clipPath>
</defs>
</svg>
