<svg width="256" height="281" viewBox="0 0 256 281" fill="none" xmlns="http://www.w3.org/2000/svg">
<g filter="url(#filter0_d_1_4531)">
<path d="M146.399 115.416C139.555 115.416 133.459 113.725 128.109 110.342C122.76 106.959 118.551 102.082 115.483 95.71C112.494 89.2593 110.999 81.5893 110.999 72.7C110.999 63.8107 112.494 56.18 115.483 49.808C118.551 43.3573 122.76 38.4407 128.109 35.058C133.459 31.6753 139.555 29.984 146.399 29.984C153.243 29.984 159.34 31.6753 164.689 35.058C170.039 38.4407 174.208 43.3573 177.197 49.808C180.265 56.18 181.799 63.8107 181.799 72.7C181.799 81.5893 180.265 89.2593 177.197 95.71C174.208 102.082 170.039 106.959 164.689 110.342C159.34 113.725 153.243 115.416 146.399 115.416ZM146.399 99.25C151.434 99.25 155.367 97.0867 158.199 92.76C161.11 88.4333 162.565 81.7467 162.565 72.7C162.565 63.6533 161.11 56.9667 158.199 52.64C155.367 48.3133 151.434 46.15 146.399 46.15C141.443 46.15 137.51 48.3133 134.599 52.64C131.767 56.9667 130.351 63.6533 130.351 72.7C130.351 81.7467 131.767 88.4333 134.599 92.76C137.51 97.0867 141.443 99.25 146.399 99.25ZM234.056 31.4V114H214.94V46.74H198.42V31.4H234.056Z" fill="#EF8B54"/>
</g>
<g filter="url(#filter1_d_1_4531)">
<circle cx="103" cy="164" r="89.75" fill="white" stroke="#DBDBDB" stroke-width="0.5"/>
<g clip-path="url(#clip0_1_4531)">
<path d="M101.5 141.079L111.118 133.065H123.71V120H92.3548V133.065H101.5V141.079ZM94.9677 130.452V122.613H121.097V130.452H110.172L104.113 135.501V130.452H94.9677Z" fill="#1D1D1D"/>
<path d="M97.5807 125.226H100.194V127.839H97.5807V125.226Z" fill="#1D1D1D"/>
<path d="M102.806 125.226H113.258V127.839H102.806V125.226Z" fill="#1D1D1D"/>
<path d="M115.871 125.226H118.484V127.839H115.871V125.226Z" fill="#1D1D1D"/>
<path d="M127.505 198.387L126.448 187.811C130.81 187.121 134.161 183.344 134.161 178.79V161.806H128.935V160.001C128.935 158.225 127.959 156.63 126.39 155.812C127.951 154.379 128.935 152.329 128.935 150.048V147.435C128.935 143.112 125.42 139.597 121.097 139.597C116.774 139.597 113.258 143.112 113.258 147.435V150.048C113.258 153.431 115.415 156.31 118.423 157.407L111.411 164.419H104.084C103.938 162.241 102.442 160.343 100.323 159.737L94.9677 158.209V155.875C96.567 154.439 97.5806 152.363 97.5806 150.048V147.435C97.5806 143.112 94.0651 139.597 89.7419 139.597C85.4188 139.597 81.9032 143.112 81.9032 147.435V150.048C81.9032 152.362 82.9169 154.438 84.5161 155.875V158.21L79.1608 159.738C76.9294 160.374 75.371 162.441 75.371 164.763V169.645H70.1452V177.484H72.7581V198.387H61V201H142V198.387H127.505ZM115.871 177.484V171.492L125.128 162.235C125.798 161.566 126.196 160.667 126.285 159.729C126.296 159.821 126.323 159.907 126.323 160.001V176.177C126.323 178.338 124.564 180.097 122.403 180.097H111.952V177.484H115.871ZM111.952 187.935H118.608L119.653 198.387H111.952V187.935ZM121.234 187.935H123.834L124.879 198.387H122.279L121.234 187.935ZM128.935 176.177V164.419H131.548V178.79C131.548 182.392 128.618 185.322 125.016 185.322H111.952V182.71H122.403C126.005 182.71 128.935 179.779 128.935 176.177ZM115.871 150.048V147.435C115.871 144.553 118.215 142.21 121.097 142.21C123.979 142.21 126.323 144.553 126.323 147.435V150.048C126.323 152.93 123.979 155.274 121.097 155.274C118.215 155.274 115.871 152.93 115.871 150.048ZM112.493 167.032L121.209 158.316C121.482 158.043 121.86 157.887 122.245 157.887C123.053 157.887 123.71 158.544 123.71 159.352C123.71 159.737 123.554 160.115 123.281 160.388L114.024 169.645H100.194C99.4727 169.645 98.8871 169.059 98.8871 168.339C98.8871 167.618 99.4727 167.032 100.194 167.032H112.493ZM84.5161 147.435C84.5161 144.553 86.8598 142.21 89.7419 142.21C92.624 142.21 94.9677 144.553 94.9677 147.435V150.048C94.9677 152.93 92.624 155.274 89.7419 155.274C86.8598 155.274 84.5161 152.93 84.5161 150.048V147.435ZM89.7419 157.887C90.6593 157.887 91.5358 157.72 92.3548 157.43V158.833C92.0308 159.333 91.1307 160.5 89.7419 160.5C88.3532 160.5 87.4531 159.333 87.129 158.833V157.43C87.9481 157.72 88.8246 157.887 89.7419 157.887ZM77.9839 164.763C77.9839 163.601 78.764 162.569 79.8785 162.25L85.2606 160.713C86.0184 161.7 87.4933 163.113 89.7419 163.113C91.9906 163.113 93.4655 161.7 94.2233 160.712L99.6054 162.249C100.606 162.535 101.304 163.406 101.444 164.418H100.194C98.0329 164.418 96.2742 166.177 96.2742 168.337C96.2742 168.797 96.368 169.234 96.5147 169.644H77.9839V164.763ZM72.7581 172.258H113.258V174.871H72.7581V172.258ZM75.371 182.71H79.2903V180.097H75.371V177.484H109.339V180.097H81.9032V182.71H109.339V198.387H106.227L103.614 193.161H81.0956L78.4827 198.387H75.371V182.71ZM103.305 198.387H81.4044L82.7108 195.774H101.999L103.305 198.387Z" fill="#1D1D1D"/>
</g>
</g>
<defs>
<filter id="filter0_d_1_4531" x="110.999" y="29.9839" width="133.056" height="95.4321" filterUnits="userSpaceOnUse" color-interpolation-filters="sRGB">
<feFlood flood-opacity="0" result="BackgroundImageFix"/>
<feColorMatrix in="SourceAlpha" type="matrix" values="0 0 0 0 0 0 0 0 0 0 0 0 0 0 0 0 0 0 127 0" result="hardAlpha"/>
<feOffset dx="5" dy="5"/>
<feGaussianBlur stdDeviation="2.5"/>
<feColorMatrix type="matrix" values="0 0 0 0 0.937255 0 0 0 0 0.545098 0 0 0 0 0.329412 0 0 0 0.15 0"/>
<feBlend mode="normal" in2="BackgroundImageFix" result="effect1_dropShadow_1_4531"/>
<feBlend mode="normal" in="SourceGraphic" in2="effect1_dropShadow_1_4531" result="shape"/>
</filter>
<filter id="filter1_d_1_4531" x="0" y="61" width="220" height="220" filterUnits="userSpaceOnUse" color-interpolation-filters="sRGB">
<feFlood flood-opacity="0" result="BackgroundImageFix"/>
<feColorMatrix in="SourceAlpha" type="matrix" values="0 0 0 0 0 0 0 0 0 0 0 0 0 0 0 0 0 0 127 0" result="hardAlpha"/>
<feOffset dx="7" dy="7"/>
<feGaussianBlur stdDeviation="10"/>
<feColorMatrix type="matrix" values="0 0 0 0 0 0 0 0 0 0 0 0 0 0 0 0 0 0 0.18 0"/>
<feBlend mode="normal" in2="BackgroundImageFix" result="effect1_dropShadow_1_4531"/>
<feBlend mode="normal" in="SourceGraphic" in2="effect1_dropShadow_1_4531" result="shape"/>
</filter>
<clipPath id="clip0_1_4531">
<rect width="81" height="81" fill="white" transform="translate(61 120)"/>
</clipPath>
</defs>
</svg>
