<svg width="262" height="279" viewBox="0 0 262 279" fill="none" xmlns="http://www.w3.org/2000/svg">
<path opacity="0.1" d="M146.392 115.416C139.548 115.416 133.451 113.725 128.102 110.342C122.752 106.959 118.544 102.082 115.476 95.71C112.486 89.2593 110.992 81.5893 110.992 72.7C110.992 63.8107 112.486 56.18 115.476 49.808C118.544 43.3573 122.752 38.4407 128.102 35.058C133.451 31.6753 139.548 29.984 146.392 29.984C153.236 29.984 159.332 31.6753 164.682 35.058C170.031 38.4407 174.2 43.3573 177.19 49.808C180.258 56.18 181.792 63.8107 181.792 72.7C181.792 81.5893 180.258 89.2593 177.19 95.71C174.2 102.082 170.031 106.959 164.682 110.342C159.332 113.725 153.236 115.416 146.392 115.416ZM146.392 99.25C151.426 99.25 155.36 97.0867 158.192 92.76C161.102 88.4333 162.558 81.7467 162.558 72.7C162.558 63.6533 161.102 56.9667 158.192 52.64C155.36 48.3133 151.426 46.15 146.392 46.15C141.436 46.15 137.502 48.3133 134.592 52.64C131.76 56.9667 130.344 63.6533 130.344 72.7C130.344 81.7467 131.76 88.4333 134.592 92.76C137.502 97.0867 141.436 99.25 146.392 99.25ZM230.846 62.198C236.116 62.198 240.915 63.26 245.242 65.384C249.568 67.508 252.99 70.5367 255.508 74.47C258.025 78.3247 259.284 82.8087 259.284 87.922C259.284 93.4287 257.907 98.2667 255.154 102.436C252.4 106.605 248.624 109.831 243.826 112.112C239.106 114.315 233.835 115.416 228.014 115.416C216.45 115.416 207.403 111.876 200.874 104.796C194.344 97.716 191.08 87.6073 191.08 74.47C191.08 65.1087 192.85 57.0847 196.39 50.398C199.93 43.7113 204.846 38.6373 211.14 35.176C217.512 31.7147 224.867 29.984 233.206 29.984C237.611 29.984 241.82 30.4953 245.832 31.518C249.922 32.462 253.384 33.8387 256.216 35.648L249.136 49.69C245.045 46.9367 239.892 45.56 233.678 45.56C226.676 45.56 221.13 47.6053 217.04 51.696C212.949 55.7867 210.746 61.726 210.432 69.514C215.309 64.6367 222.114 62.198 230.846 62.198ZM226.952 101.138C231.042 101.138 234.346 100.037 236.864 97.834C239.46 95.6313 240.758 92.642 240.758 88.866C240.758 85.09 239.46 82.1007 236.864 79.898C234.346 77.6167 230.964 76.476 226.716 76.476C222.546 76.476 219.124 77.656 216.45 80.016C213.775 82.2973 212.438 85.2473 212.438 88.866C212.438 92.4847 213.736 95.4347 216.332 97.716C218.928 99.9973 222.468 101.138 226.952 101.138Z" fill="white"/>
<g filter="url(#filter0_d_1_4721)">
<circle cx="108" cy="164" r="90" fill="#1D1D1D"/>
</g>
<path d="M142.522 158.243C139.493 156.728 133.815 156.711 133.575 156.711C132.855 156.711 132.271 157.295 132.271 158.015C132.271 158.735 132.855 159.318 133.575 159.318C135.04 159.319 139.294 159.544 141.356 160.575C141.543 160.668 141.742 160.713 141.938 160.713C142.416 160.713 142.876 160.448 143.105 159.992C143.427 159.348 143.166 158.565 142.522 158.243Z" fill="#EF8B54"/>
<path d="M149.021 176.804L143.637 175.266C143.405 175.199 143.242 174.984 143.242 174.742V172.945C143.68 172.642 144.098 172.302 144.489 171.923C146.382 170.086 147.424 167.622 147.424 164.984V162.504L147.945 161.463C148.516 160.32 148.818 159.041 148.818 157.763V151.045C148.818 150.325 148.234 149.741 147.515 149.741H134.969C130.407 149.741 126.695 153.453 126.695 158.015V158.092C126.695 159.155 126.946 160.219 127.422 161.169L128.089 162.504V164.634C128.089 168.008 129.752 171.036 132.271 172.858L132.272 174.742C132.272 175.032 132.272 175.153 131.195 175.46L128.568 176.211L120.968 173.447C120.995 173.089 120.874 172.724 120.613 172.449L118.184 169.898V165.615C118.441 165.403 118.694 165.186 118.939 164.956C122.003 162.084 123.76 158.03 123.76 153.833V150.412C124.685 148.399 125.154 146.269 125.154 144.075V130.135C125.154 129.416 124.57 128.832 123.85 128.832H104.335C97.4666 128.832 91.8792 134.419 91.8792 141.287V144.075C91.8792 146.269 92.3481 148.399 93.2732 150.412V153.355C93.2732 158.229 95.4401 162.619 98.8491 165.514V169.898L96.4205 172.449C96.1589 172.724 96.0379 173.089 96.0652 173.448L88.0439 176.364C87.4626 176.576 86.9225 176.862 86.4322 177.209L85.1726 176.579C88.9221 174.947 90.1099 172.651 90.1669 172.537C90.3504 172.17 90.3504 171.738 90.1669 171.371C89.227 169.492 89.1131 166.046 89.0217 163.278C88.9913 162.356 88.9624 161.485 88.9073 160.71C88.4628 154.457 83.709 149.741 77.8492 149.741C71.9895 149.741 67.2355 154.457 66.7912 160.71C66.7361 161.486 66.7072 162.356 66.6768 163.278C66.5853 166.046 66.4713 169.491 65.5316 171.371C65.348 171.738 65.348 172.17 65.5316 172.537C65.5886 172.651 66.7739 174.942 70.5309 176.576L67.0323 178.325C65.1619 179.261 64 181.141 64 183.232V192.864C64 193.584 64.5837 194.167 65.3037 194.167C66.0237 194.167 66.6074 193.584 66.6074 192.864V183.232C66.6074 182.135 67.217 181.148 68.1983 180.658L72.555 178.479L74.0704 179.92C75.13 180.927 76.4894 181.43 77.8492 181.43C79.2087 181.43 80.5688 180.926 81.6281 179.92L83.1433 178.48L84.5639 179.19C83.895 180.26 83.5153 181.515 83.5153 182.83V192.864C83.5153 193.584 84.0991 194.168 84.819 194.168C85.539 194.168 86.1228 193.584 86.1228 192.864V182.83C86.1228 181.04 87.2528 179.427 88.9349 178.815L97.392 175.74L100.913 181.021C101.363 181.696 102.084 182.129 102.891 182.209C102.981 182.218 103.071 182.222 103.16 182.222C103.873 182.222 104.555 181.942 105.065 181.432L107.213 179.284V192.864C107.213 193.584 107.796 194.168 108.516 194.168C109.236 194.168 109.82 193.584 109.82 192.864V179.284L111.968 181.432C112.478 181.942 113.16 182.222 113.873 182.222C113.962 182.222 114.051 182.218 114.141 182.209C114.949 182.129 115.67 181.696 116.12 181.021L119.641 175.74L128.098 178.815C129.78 179.427 130.91 181.04 130.91 182.83V192.864C130.91 193.584 131.494 194.168 132.214 194.168C132.934 194.168 133.517 193.584 133.517 192.864V182.83C133.517 181.017 132.797 179.317 131.589 178.06L131.911 177.968C132.236 177.875 132.679 177.748 133.124 177.53L136.453 180.859V192.864C136.453 193.584 137.037 194.168 137.757 194.168C138.477 194.168 139.06 193.584 139.06 192.864V180.859L142.366 177.553C142.542 177.643 142.726 177.718 142.921 177.773L148.305 179.312C149.534 179.663 150.393 180.801 150.393 182.079V192.864C150.393 193.584 150.976 194.168 151.696 194.168C152.416 194.168 153 193.584 153 192.864V182.079C153 179.643 151.364 177.473 149.021 176.804ZM72.3637 174.501C69.9251 173.624 68.7019 172.454 68.1797 171.815C68.5357 170.884 68.7665 169.819 68.9228 168.693C69.6418 170.417 70.8459 171.889 72.3637 172.939V174.501ZM79.8323 178.03C78.7203 179.086 76.9784 179.086 75.8667 178.029L74.6543 176.877C74.8589 176.494 74.9713 176.059 74.9713 175.604V174.215C75.8808 174.499 76.8476 174.652 77.8496 174.652C78.8503 174.652 79.8166 174.498 80.7277 174.216L80.7275 175.604C80.7275 176.059 80.8398 176.494 81.0445 176.878L79.8323 178.03ZM77.8499 172.045C73.9569 172.045 70.7899 168.878 70.7899 164.985C70.7899 164.265 70.2062 163.681 69.4862 163.681C69.4132 163.681 69.3419 163.688 69.2722 163.7C69.276 163.588 69.2797 163.476 69.2835 163.365C69.3125 162.468 69.3405 161.622 69.3921 160.895C69.5587 158.553 70.4947 156.394 72.0279 154.817C73.5748 153.225 75.6423 152.349 77.8496 152.349C80.0569 152.349 82.1242 153.225 83.6713 154.817C85.2044 156.394 86.1405 158.553 86.307 160.895C86.3585 161.621 86.3866 162.468 86.4162 163.364C86.4188 163.441 86.4214 163.519 86.424 163.597C85.0056 161.411 82.815 159.801 79.9845 158.891C77.3696 158.051 75.1207 158.103 75.0257 158.106C74.6843 158.115 74.3603 158.258 74.1234 158.504L71.7712 160.943C71.2714 161.462 71.2864 162.287 71.8047 162.787C72.3231 163.287 73.1484 163.271 73.6482 162.753L75.6055 160.724C77.2911 160.806 82.714 161.437 84.823 166.081C84.2923 169.503 81.3508 172.045 77.8499 172.045ZM83.3347 174.506L83.3349 172.951C84.8516 171.907 86.0574 170.438 86.7769 168.701C86.9331 169.823 87.1638 170.887 87.5191 171.815C86.9999 172.448 85.7709 173.629 83.3347 174.506ZM95.8806 153.355V150.121C95.8806 149.924 95.8363 149.731 95.7509 149.554C94.912 147.817 94.4867 145.973 94.4867 144.075V141.287C94.4867 135.857 98.9045 131.439 104.335 131.439H122.546V144.075C122.546 145.973 122.121 147.817 121.282 149.554C121.197 149.731 121.152 149.925 121.152 150.121V153.833C121.152 157.364 119.733 160.638 117.156 163.054C116.834 163.355 116.5 163.638 116.155 163.901C116.147 163.907 116.14 163.912 116.133 163.918C113.718 165.751 110.761 166.642 107.673 166.442C101.06 166.013 95.8806 160.265 95.8806 153.355ZM103.221 179.588C103.212 179.597 103.191 179.618 103.149 179.614C103.106 179.61 103.089 179.585 103.082 179.574L99.0278 173.492L100.333 172.121L106.483 176.325L103.221 179.588ZM108.517 174.557L101.456 169.731V167.297C103.283 168.285 105.329 168.902 107.504 169.043C107.848 169.066 108.189 169.076 108.53 169.076C111.023 169.076 113.422 168.481 115.577 167.349V169.731L108.517 174.557ZM113.951 179.574C113.944 179.585 113.927 179.61 113.885 179.614C113.842 179.619 113.821 179.597 113.812 179.588L110.55 176.326L116.701 172.121L118.005 173.492L113.951 179.574ZM137.757 178.474L134.798 175.516C134.85 175.281 134.879 175.025 134.879 174.742L134.879 174.191C135.7 174.461 136.565 174.621 137.46 174.647C137.561 174.651 137.66 174.652 137.76 174.652C138.75 174.652 139.716 174.503 140.635 174.217V174.742C140.635 175.002 140.668 175.257 140.729 175.502L137.757 178.474ZM142.673 170.052C141.291 171.393 139.466 172.101 137.539 172.041C133.766 171.928 130.697 168.605 130.697 164.634V162.197C130.697 161.994 130.65 161.795 130.559 161.614L129.754 160.003C129.459 159.413 129.303 158.752 129.303 158.092V158.015C129.303 154.89 131.845 152.349 134.969 152.349H146.211V157.763C146.211 158.638 146.004 159.515 145.613 160.297L144.955 161.614C144.864 161.795 144.817 161.994 144.817 162.197V164.985C144.817 166.911 144.056 168.71 142.673 170.052Z" fill="#EF8B54"/>
<path d="M146.121 183.196C145.401 183.196 144.817 183.78 144.817 184.5V192.864C144.817 193.584 145.401 194.167 146.121 194.167C146.841 194.167 147.424 193.584 147.424 192.864V184.5C147.424 183.78 146.841 183.196 146.121 183.196Z" fill="#EF8B54"/>
<path d="M70.8795 184.919C70.1596 184.919 69.5758 185.503 69.5758 186.223V192.864C69.5758 193.584 70.1596 194.167 70.8795 194.167C71.5995 194.167 72.1833 193.584 72.1833 192.864V186.223C72.1833 185.503 71.5995 184.919 70.8795 184.919Z" fill="#EF8B54"/>
<path d="M119.196 144.547C114.265 139.617 103.949 140.559 99.7417 141.193C98.4166 141.393 97.455 142.514 97.455 143.86V146.863C97.455 147.583 98.0387 148.167 98.7587 148.167C99.4787 148.167 100.062 147.583 100.062 146.863V143.86C100.062 143.815 100.092 143.777 100.131 143.771C101.811 143.518 105.145 143.127 108.6 143.358C112.666 143.628 115.61 144.649 117.352 146.391C117.862 146.9 118.687 146.9 119.196 146.391C119.705 145.882 119.705 145.056 119.196 144.547Z" fill="#EF8B54"/>
<path d="M93.1828 185.984C92.4628 185.984 91.8791 186.568 91.8791 187.288V192.864C91.8791 193.584 92.4628 194.167 93.1828 194.167C93.9028 194.167 94.4866 193.584 94.4866 192.864V187.288C94.4866 186.568 93.9028 185.984 93.1828 185.984Z" fill="#EF8B54"/>
<path d="M123.85 185.984C123.13 185.984 122.546 186.568 122.546 187.288V192.864C122.546 193.584 123.13 194.167 123.85 194.167C124.57 194.167 125.154 193.584 125.154 192.864V187.288C125.154 186.568 124.57 185.984 123.85 185.984Z" fill="#EF8B54"/>
<defs>
<filter id="filter0_d_1_4721" x="0" y="59" width="220" height="220" filterUnits="userSpaceOnUse" color-interpolation-filters="sRGB">
<feFlood flood-opacity="0" result="BackgroundImageFix"/>
<feColorMatrix in="SourceAlpha" type="matrix" values="0 0 0 0 0 0 0 0 0 0 0 0 0 0 0 0 0 0 127 0" result="hardAlpha"/>
<feOffset dx="2" dy="5"/>
<feGaussianBlur stdDeviation="10"/>
<feColorMatrix type="matrix" values="0 0 0 0 0 0 0 0 0 0 0 0 0 0 0 0 0 0 0.2 0"/>
<feBlend mode="normal" in2="BackgroundImageFix" result="effect1_dropShadow_1_4721"/>
<feBlend mode="normal" in="SourceGraphic" in2="effect1_dropShadow_1_4721" result="shape"/>
</filter>
</defs>
</svg>
