<svg width="255" height="279" viewBox="0 0 255 279" fill="none" xmlns="http://www.w3.org/2000/svg">
<path opacity="0.1" d="M146.118 115.416C139.274 115.416 133.178 113.725 127.828 110.342C122.479 106.959 118.27 102.082 115.202 95.71C112.213 89.2593 110.718 81.5893 110.718 72.7C110.718 63.8107 112.213 56.18 115.202 49.808C118.27 43.3573 122.479 38.4407 127.828 35.058C133.178 31.6753 139.274 29.984 146.118 29.984C152.962 29.984 159.059 31.6753 164.408 35.058C169.758 38.4407 173.927 43.3573 176.916 49.808C179.984 56.18 181.518 63.8107 181.518 72.7C181.518 81.5893 179.984 89.2593 176.916 95.71C173.927 102.082 169.758 106.959 164.408 110.342C159.059 113.725 152.962 115.416 146.118 115.416ZM146.118 99.25C151.153 99.25 155.086 97.0867 157.918 92.76C160.829 88.4333 162.284 81.7467 162.284 72.7C162.284 63.6533 160.829 56.9667 157.918 52.64C155.086 48.3133 151.153 46.15 146.118 46.15C141.162 46.15 137.229 48.3133 134.318 52.64C131.486 56.9667 130.07 63.6533 130.07 72.7C130.07 81.7467 131.486 88.4333 134.318 92.76C137.229 97.0867 141.162 99.25 146.118 99.25ZM228.24 65.03C235.477 66.21 241.023 68.924 244.878 73.172C248.732 77.3413 250.66 82.5333 250.66 88.748C250.66 93.5467 249.401 97.9913 246.884 102.082C244.366 106.094 240.512 109.319 235.32 111.758C230.206 114.197 223.913 115.416 216.44 115.416C210.618 115.416 204.876 114.669 199.212 113.174C193.626 111.601 188.867 109.398 184.934 106.566L192.368 91.934C195.514 94.294 199.133 96.1427 203.224 97.48C207.393 98.7387 211.641 99.368 215.968 99.368C220.766 99.368 224.542 98.4633 227.296 96.654C230.049 94.766 231.426 92.1307 231.426 88.748C231.426 81.9827 226.273 78.6 215.968 78.6H207.236V65.974L224.228 46.74H189.064V31.4H246.884V43.79L228.24 65.03Z" fill="white"/>
<g filter="url(#filter0_d_1_4604)">
<circle cx="108" cy="164" r="90" fill="#1D1D1D"/>
</g>
<g clip-path="url(#clip0_1_4604)">
<path d="M155.862 143.785C155.604 142.825 154.974 142.006 154.113 141.51C153.25 141.012 152.225 140.877 151.263 141.135C150.303 141.394 149.484 142.023 148.988 142.885L148.363 143.972C147.77 143.631 147.011 143.832 146.664 144.422L143.489 149.834L142.402 149.209C142.114 149.042 141.771 148.997 141.45 149.084C141.128 149.171 140.855 149.382 140.69 149.671C140.351 150.269 140.557 151.028 141.152 151.371L142.24 151.996L131.616 170.405L128.992 177.417L127.742 179.753C127.01 181.026 127.088 182.609 127.942 183.803L125.13 187.252L124.343 185.278C123.988 184.398 123.166 183.795 122.22 183.721C121.275 183.647 120.368 184.114 119.881 184.928L119.431 185.69L119.006 180.691C118.909 179.508 117.993 178.557 116.815 178.414C115.637 178.272 114.521 178.978 114.144 180.104L111.07 189.327C110.855 189.979 111.207 190.682 111.857 190.902C111.979 190.959 112.11 190.993 112.245 191.001C112.782 191.003 113.26 190.661 113.432 190.152L116.494 180.929L116.931 186.002C117.022 187.085 117.8 187.985 118.858 188.23C119.916 188.476 121.011 188.009 121.568 187.078L122.031 186.315L122.806 188.277C123.135 189.104 123.879 189.694 124.759 189.825C125.64 189.957 126.523 189.609 127.08 188.914L129.992 185.228C130.314 185.312 130.646 185.354 130.979 185.353C132.319 185.363 133.563 184.658 134.241 183.503L135.491 181.416L140.253 175.629L150.988 156.995L152.076 157.62C152.365 157.786 152.577 158.06 152.663 158.382C152.749 158.703 152.704 159.045 152.538 159.332L147.539 167.993C147.35 168.278 147.286 168.627 147.362 168.96C147.438 169.292 147.646 169.58 147.939 169.755C148.227 169.922 148.57 169.967 148.891 169.881C149.212 169.794 149.486 169.582 149.651 169.293L154.65 160.632C155.149 159.77 155.284 158.744 155.025 157.783C154.766 156.822 154.137 156.004 153.275 155.508L152.188 154.883L155.312 149.471C155.653 148.877 155.453 148.119 154.863 147.771L155.487 146.684C156 145.808 156.135 144.762 155.862 143.785ZM151.15 144.134C151.316 143.845 151.59 143.633 151.913 143.547C152.234 143.468 152.574 143.513 152.863 143.672C153.153 143.838 153.364 144.112 153.45 144.435C153.53 144.756 153.485 145.095 153.325 145.384L152.701 146.472L150.526 145.222L151.15 144.134ZM134.116 179.029L133.491 178.667L131.641 177.591L133.416 172.842L137.353 175.117L134.116 179.029ZM130.367 182.64C129.839 182.272 129.676 181.565 129.992 181.003L130.617 179.916L132.791 181.166L132.166 182.241C131.991 182.545 131.697 182.761 131.355 182.837C131.012 182.913 130.654 182.842 130.367 182.64ZM138.778 173.067L134.453 170.568L144.452 153.245L148.776 155.745L138.778 173.067ZM150.026 153.583L145.702 151.083L148.201 146.759L152.525 149.259L150.026 153.583Z" fill="#EF8B54"/>
<path d="M100.721 182.016L96.2977 186.428L93.648 183.778C93.1604 183.293 92.3732 183.293 91.8856 183.778C91.6488 184.013 91.5158 184.332 91.5158 184.665C91.5158 184.998 91.6488 185.318 91.8856 185.553L94.5353 188.202C95.004 188.667 95.6374 188.928 96.2977 188.927C96.9617 188.931 97.6006 188.67 98.0723 188.202L102.484 183.778C102.909 183.282 102.88 182.543 102.418 182.081C101.957 181.62 101.218 181.591 100.721 182.016Z" fill="#EF8B54"/>
<path d="M85.9991 185.377C85.9991 191.245 90.7554 196.001 96.6223 196.001C102.489 196.001 107.245 191.245 107.245 185.377C107.245 184.687 106.686 184.128 105.996 184.128C105.305 184.128 104.746 184.687 104.746 185.377C104.746 189.864 101.109 193.501 96.6223 193.501C92.1357 193.501 88.4987 189.864 88.4987 185.377C88.4987 180.891 92.1357 177.254 96.6223 177.254C98.381 177.249 100.093 177.82 101.496 178.879C102.049 179.293 102.832 179.181 103.246 178.629C103.66 178.076 103.549 177.294 102.996 176.879C99.7773 174.465 95.4701 174.077 91.8715 175.876C88.2723 177.676 85.9991 181.354 85.9991 185.377Z" fill="#EF8B54"/>
<path d="M125.992 136.011C126.682 136.011 127.242 135.452 127.242 134.761C127.242 134.071 126.682 133.511 125.992 133.511H93.4978C92.8076 133.511 92.248 134.071 92.248 134.761V139.76C92.248 140.451 92.8076 141.01 93.4978 141.01H125.992C126.682 141.01 127.242 140.451 127.242 139.76C127.242 139.07 126.682 138.51 125.992 138.51H94.7476V136.011H125.992Z" fill="#EF8B54"/>
<path d="M97.2472 143.51C96.557 143.51 95.9974 144.069 95.9974 144.759C95.9974 145.45 96.557 146.009 97.2472 146.009H122.243C122.933 146.009 123.493 145.45 123.493 144.759C123.493 144.069 122.933 143.51 122.243 143.51H97.2472Z" fill="#EF8B54"/>
<path d="M129.742 152.258H102.246C101.556 152.258 100.997 152.818 100.997 153.508C100.997 154.199 101.556 154.758 102.246 154.758H129.742C130.432 154.758 130.991 154.199 130.991 153.508C130.991 152.818 130.432 152.258 129.742 152.258Z" fill="#EF8B54"/>
<path d="M117.244 161.007C117.244 160.316 116.684 159.757 115.994 159.757H90.9983C90.3081 159.757 89.7485 160.316 89.7485 161.007C89.7485 161.697 90.3081 162.256 90.9983 162.256H115.994C116.684 162.256 117.244 161.697 117.244 161.007Z" fill="#EF8B54"/>
<path d="M129.742 159.757H120.993C120.303 159.757 119.743 160.316 119.743 161.007C119.743 161.697 120.303 162.256 120.993 162.256H129.742C130.432 162.256 130.991 161.697 130.991 161.007C130.991 160.316 130.432 159.757 129.742 159.757Z" fill="#EF8B54"/>
<path d="M103.496 168.505C104.186 168.505 104.746 167.946 104.746 167.255C104.746 166.565 104.186 166.006 103.496 166.006H90.9983C90.3081 166.006 89.7485 166.565 89.7485 167.255C89.7485 167.946 90.3081 168.505 90.9983 168.505H103.496Z" fill="#EF8B54"/>
<path d="M108.495 168.505H117.244C117.934 168.505 118.494 167.946 118.494 167.255C118.494 166.565 117.934 166.006 117.244 166.006H108.495C107.805 166.006 107.245 166.565 107.245 167.255C107.245 167.946 107.805 168.505 108.495 168.505Z" fill="#EF8B54"/>
<path d="M137.24 183.503C136.55 183.503 135.991 184.062 135.991 184.752V197.25C135.991 197.941 135.431 198.5 134.741 198.5H84.7494C84.0592 198.5 83.4996 197.941 83.4996 197.25V129.762C83.4996 129.072 84.0592 128.512 84.7494 128.512H134.741C135.431 128.512 135.991 129.072 135.991 129.762V153.233C135.991 153.923 136.55 154.483 137.24 154.483C137.931 154.483 138.49 153.923 138.49 153.233V129.762C138.49 127.691 136.811 126.012 134.741 126.012H84.7494C82.6788 126.012 81 127.691 81 129.762V197.25C81 199.321 82.6788 201 84.7494 201H134.741C136.811 201 138.49 199.321 138.49 197.25V184.752C138.49 184.062 137.931 183.503 137.24 183.503Z" fill="#EF8B54"/>
</g>
<defs>
<filter id="filter0_d_1_4604" x="0" y="59" width="220" height="220" filterUnits="userSpaceOnUse" color-interpolation-filters="sRGB">
<feFlood flood-opacity="0" result="BackgroundImageFix"/>
<feColorMatrix in="SourceAlpha" type="matrix" values="0 0 0 0 0 0 0 0 0 0 0 0 0 0 0 0 0 0 127 0" result="hardAlpha"/>
<feOffset dx="2" dy="5"/>
<feGaussianBlur stdDeviation="10"/>
<feColorMatrix type="matrix" values="0 0 0 0 0 0 0 0 0 0 0 0 0 0 0 0 0 0 0.2 0"/>
<feBlend mode="normal" in2="BackgroundImageFix" result="effect1_dropShadow_1_4604"/>
<feBlend mode="normal" in="SourceGraphic" in2="effect1_dropShadow_1_4604" result="shape"/>
</filter>
<clipPath id="clip0_1_4604">
<rect width="75" height="75" fill="white" transform="translate(81 126)"/>
</clipPath>
</defs>
</svg>
