<svg width="138" height="28" viewBox="0 0 138 28" fill="none" xmlns="http://www.w3.org/2000/svg">
<path d="M13.2172 6.4V19H11.9032V7.552H3.92921V19H2.61521V6.4H13.2172ZM21.0687 19.09C20.1567 19.09 19.3347 18.886 18.6027 18.478C17.8707 18.058 17.2947 17.482 16.8747 16.75C16.4547 16.018 16.2447 15.19 16.2447 14.266C16.2447 13.342 16.4547 12.514 16.8747 11.782C17.2947 11.05 17.8707 10.48 18.6027 10.072C19.3347 9.664 20.1567 9.46 21.0687 9.46C21.9807 9.46 22.8027 9.664 23.5347 10.072C24.2667 10.48 24.8367 11.05 25.2447 11.782C25.6647 12.514 25.8747 13.342 25.8747 14.266C25.8747 15.19 25.6647 16.018 25.2447 16.75C24.8367 17.482 24.2667 18.058 23.5347 18.478C22.8027 18.886 21.9807 19.09 21.0687 19.09ZM21.0687 17.956C21.7407 17.956 22.3407 17.806 22.8687 17.506C23.4087 17.194 23.8287 16.756 24.1287 16.192C24.4287 15.628 24.5787 14.986 24.5787 14.266C24.5787 13.546 24.4287 12.904 24.1287 12.34C23.8287 11.776 23.4087 11.344 22.8687 11.044C22.3407 10.732 21.7407 10.576 21.0687 10.576C20.3967 10.576 19.7907 10.732 19.2507 11.044C18.7227 11.344 18.3027 11.776 17.9907 12.34C17.6907 12.904 17.5407 13.546 17.5407 14.266C17.5407 14.986 17.6907 15.628 17.9907 16.192C18.3027 16.756 18.7227 17.194 19.2507 17.506C19.7907 17.806 20.3967 17.956 21.0687 17.956ZM37.7874 17.884V21.286H36.5814V19H28.1034V21.286H26.8974V17.884H27.4374C28.0734 17.848 28.5054 17.38 28.7334 16.48C28.9614 15.58 29.1174 14.32 29.2014 12.7L29.3274 9.532H36.3114V17.884H37.7874ZM30.3714 12.772C30.3114 14.116 30.1974 15.226 30.0294 16.102C29.8614 16.966 29.5614 17.56 29.1294 17.884H35.0334V10.666H30.4794L30.3714 12.772ZM45.156 9.46C46.044 9.46 46.848 9.664 47.568 10.072C48.288 10.468 48.852 11.032 49.26 11.764C49.668 12.496 49.872 13.33 49.872 14.266C49.872 15.214 49.668 16.054 49.26 16.786C48.852 17.518 48.288 18.088 47.568 18.496C46.86 18.892 46.056 19.09 45.156 19.09C44.388 19.09 43.692 18.934 43.068 18.622C42.456 18.298 41.952 17.83 41.556 17.218V22.492H40.278V9.532H41.502V11.404C41.886 10.78 42.39 10.3 43.014 9.964C43.65 9.628 44.364 9.46 45.156 9.46ZM45.066 17.956C45.726 17.956 46.326 17.806 46.866 17.506C47.406 17.194 47.826 16.756 48.126 16.192C48.438 15.628 48.594 14.986 48.594 14.266C48.594 13.546 48.438 12.91 48.126 12.358C47.826 11.794 47.406 11.356 46.866 11.044C46.326 10.732 45.726 10.576 45.066 10.576C44.394 10.576 43.788 10.732 43.248 11.044C42.72 11.356 42.3 11.794 41.988 12.358C41.688 12.91 41.538 13.546 41.538 14.266C41.538 14.986 41.688 15.628 41.988 16.192C42.3 16.756 42.72 17.194 43.248 17.506C43.788 17.806 44.394 17.956 45.066 17.956ZM56.5238 19.09C55.6118 19.09 54.7898 18.886 54.0578 18.478C53.3258 18.058 52.7498 17.482 52.3298 16.75C51.9098 16.018 51.6998 15.19 51.6998 14.266C51.6998 13.342 51.9098 12.514 52.3298 11.782C52.7498 11.05 53.3258 10.48 54.0578 10.072C54.7898 9.664 55.6118 9.46 56.5238 9.46C57.4358 9.46 58.2578 9.664 58.9898 10.072C59.7218 10.48 60.2918 11.05 60.6998 11.782C61.1198 12.514 61.3298 13.342 61.3298 14.266C61.3298 15.19 61.1198 16.018 60.6998 16.75C60.2918 17.482 59.7218 18.058 58.9898 18.478C58.2578 18.886 57.4358 19.09 56.5238 19.09ZM56.5238 17.956C57.1958 17.956 57.7958 17.806 58.3238 17.506C58.8638 17.194 59.2838 16.756 59.5838 16.192C59.8838 15.628 60.0338 14.986 60.0338 14.266C60.0338 13.546 59.8838 12.904 59.5838 12.34C59.2838 11.776 58.8638 11.344 58.3238 11.044C57.7958 10.732 57.1958 10.576 56.5238 10.576C55.8518 10.576 55.2458 10.732 54.7058 11.044C54.1778 11.344 53.7578 11.776 53.4458 12.34C53.1458 12.904 52.9958 13.546 52.9958 14.266C52.9958 14.986 53.1458 15.628 53.4458 16.192C53.7578 16.756 54.1778 17.194 54.7058 17.506C55.2458 17.806 55.8518 17.956 56.5238 17.956ZM68.6512 9.766C69.5272 9.766 70.3072 9.964 70.9912 10.36C71.6872 10.744 72.2272 11.29 72.6112 11.998C72.9952 12.694 73.1872 13.492 73.1872 14.392C73.1872 15.316 72.9832 16.138 72.5752 16.858C72.1792 17.566 71.6212 18.118 70.9012 18.514C70.1812 18.91 69.3532 19.108 68.4172 19.108C66.8452 19.108 65.6272 18.556 64.7632 17.452C63.8992 16.348 63.4672 14.824 63.4672 12.88C63.4672 10.852 63.8512 9.298 64.6192 8.218C65.3992 7.138 66.6112 6.406 68.2552 6.022L72.5032 5.05L72.7192 6.22L68.7232 7.138C67.3672 7.438 66.3712 7.972 65.7352 8.74C65.0992 9.496 64.7512 10.618 64.6912 12.106C65.0752 11.374 65.6092 10.804 66.2932 10.396C66.9772 9.976 67.7632 9.766 68.6512 9.766ZM68.4532 18.046C69.1132 18.046 69.7012 17.896 70.2172 17.596C70.7452 17.284 71.1532 16.852 71.4412 16.3C71.7412 15.748 71.8912 15.124 71.8912 14.428C71.8912 13.732 71.7472 13.12 71.4592 12.592C71.1712 12.064 70.7632 11.656 70.2352 11.368C69.7192 11.068 69.1252 10.918 68.4532 10.918C67.7812 10.918 67.1812 11.068 66.6532 11.368C66.1372 11.656 65.7292 12.064 65.4292 12.592C65.1412 13.12 64.9972 13.732 64.9972 14.428C64.9972 15.124 65.1412 15.748 65.4292 16.3C65.7292 16.852 66.1432 17.284 66.6712 17.596C67.1992 17.896 67.7932 18.046 68.4532 18.046ZM75.9264 9.532H77.2044V13.726H83.1624V9.532H84.4404V19H83.1624V14.824H77.2044V19H75.9264V9.532ZM96.3529 14.662H88.4329C88.5049 15.646 88.8829 16.444 89.5669 17.056C90.2509 17.656 91.1149 17.956 92.1589 17.956C92.7469 17.956 93.2869 17.854 93.7789 17.65C94.2709 17.434 94.6969 17.122 95.0569 16.714L95.7769 17.542C95.3569 18.046 94.8289 18.43 94.1929 18.694C93.5689 18.958 92.8789 19.09 92.1229 19.09C91.1509 19.09 90.2869 18.886 89.5309 18.478C88.7869 18.058 88.2049 17.482 87.7849 16.75C87.3649 16.018 87.1549 15.19 87.1549 14.266C87.1549 13.342 87.3529 12.514 87.7489 11.782C88.1569 11.05 88.7089 10.48 89.4049 10.072C90.1129 9.664 90.9049 9.46 91.7809 9.46C92.6569 9.46 93.4429 9.664 94.1389 10.072C94.8349 10.48 95.3809 11.05 95.7769 11.782C96.1729 12.502 96.3709 13.33 96.3709 14.266L96.3529 14.662ZM91.7809 10.558C90.8689 10.558 90.1009 10.852 89.4769 11.44C88.8649 12.016 88.5169 12.772 88.4329 13.708H95.1469C95.0629 12.772 94.7089 12.016 94.0849 11.44C93.4729 10.852 92.7049 10.558 91.7809 10.558ZM107.48 14.662H99.5598C99.6318 15.646 100.01 16.444 100.694 17.056C101.378 17.656 102.242 17.956 103.286 17.956C103.874 17.956 104.414 17.854 104.906 17.65C105.398 17.434 105.824 17.122 106.184 16.714L106.904 17.542C106.484 18.046 105.956 18.43 105.32 18.694C104.696 18.958 104.006 19.09 103.25 19.09C102.278 19.09 101.414 18.886 100.658 18.478C99.9138 18.058 99.3318 17.482 98.9118 16.75C98.4918 16.018 98.2818 15.19 98.2818 14.266C98.2818 13.342 98.4798 12.514 98.8758 11.782C99.2838 11.05 99.8358 10.48 100.532 10.072C101.24 9.664 102.032 9.46 102.908 9.46C103.784 9.46 104.57 9.664 105.266 10.072C105.962 10.48 106.508 11.05 106.904 11.782C107.3 12.502 107.498 13.33 107.498 14.266L107.48 14.662ZM102.908 10.558C101.996 10.558 101.228 10.852 100.604 11.44C99.9918 12.016 99.6438 12.772 99.5598 13.708H106.274C106.19 12.772 105.836 12.016 105.212 11.44C104.6 10.852 103.832 10.558 102.908 10.558Z" fill="white"/>
<path d="M0.491211 20.8H108.506V21.7H0.491211V20.8Z" fill="white"/>
<g filter="url(#filter0_d_1_4531)">
<circle cx="124" cy="13" r="10" fill="#EF8B54"/>
<circle cx="124" cy="13" r="9.5" stroke="#F1F1F1"/>
</g>
<line x1="124.155" y1="9.20679" x2="124.155" y2="16.793" stroke="white"/>
<line x1="120.207" y1="12.8447" x2="127.793" y2="12.8447" stroke="white"/>
<defs>
<filter id="filter0_d_1_4531" x="110" y="0" width="28" height="28" filterUnits="userSpaceOnUse" color-interpolation-filters="sRGB">
<feFlood flood-opacity="0" result="BackgroundImageFix"/>
<feColorMatrix in="SourceAlpha" type="matrix" values="0 0 0 0 0 0 0 0 0 0 0 0 0 0 0 0 0 0 127 0" result="hardAlpha"/>
<feOffset dy="1"/>
<feGaussianBlur stdDeviation="2"/>
<feColorMatrix type="matrix" values="0 0 0 0 0.936135 0 0 0 0 0.546693 0 0 0 0 0.329845 0 0 0 0.3 0"/>
<feBlend mode="normal" in2="BackgroundImageFix" result="effect1_dropShadow_1_4531"/>
<feBlend mode="normal" in="SourceGraphic" in2="effect1_dropShadow_1_4531" result="shape"/>
</filter>
</defs>
</svg>
