<svg width="257" height="279" viewBox="0 0 257 279" fill="none" xmlns="http://www.w3.org/2000/svg">
<path opacity="0.1" d="M146.369 115.416C139.525 115.416 133.429 113.725 128.079 110.342C122.73 106.959 118.521 102.082 115.453 95.71C112.464 89.2593 110.969 81.5893 110.969 72.7C110.969 63.8107 112.464 56.18 115.453 49.808C118.521 43.3573 122.73 38.4407 128.079 35.058C133.429 31.6753 139.525 29.984 146.369 29.984C153.213 29.984 159.31 31.6753 164.659 35.058C170.009 38.4407 174.178 43.3573 177.167 49.808C180.235 56.18 181.769 63.8107 181.769 72.7C181.769 81.5893 180.235 89.2593 177.167 95.71C174.178 102.082 170.009 106.959 164.659 110.342C159.31 113.725 153.213 115.416 146.369 115.416ZM146.369 99.25C151.404 99.25 155.337 97.0867 158.169 92.76C161.08 88.4333 162.535 81.7467 162.535 72.7C162.535 63.6533 161.08 56.9667 158.169 52.64C155.337 48.3133 151.404 46.15 146.369 46.15C141.413 46.15 137.48 48.3133 134.569 52.64C131.737 56.9667 130.321 63.6533 130.321 72.7C130.321 81.7467 131.737 88.4333 134.569 92.76C137.48 97.0867 141.413 99.25 146.369 99.25ZM219.377 62.434C231.02 62.434 239.594 64.7547 245.101 69.396C250.686 74.0373 253.479 80.252 253.479 88.04C253.479 93.0747 252.22 97.6767 249.703 101.846C247.186 105.937 243.331 109.241 238.139 111.758C233.026 114.197 226.693 115.416 219.141 115.416C213.32 115.416 207.577 114.669 201.913 113.174C196.328 111.601 191.568 109.398 187.635 106.566L195.187 91.934C198.334 94.294 201.952 96.1427 206.043 97.48C210.134 98.7387 214.342 99.368 218.669 99.368C223.468 99.368 227.244 98.424 229.997 96.536C232.75 94.648 234.127 92.0127 234.127 88.63C234.127 85.09 232.672 82.4153 229.761 80.606C226.929 78.7967 221.973 77.892 214.893 77.892H193.771L198.019 31.4H248.405V46.74H213.949L212.651 62.434H219.377Z" fill="white"/>
<g filter="url(#filter0_d_1_4683)">
<circle cx="108" cy="164" r="90" fill="#1D1D1D"/>
</g>
<g clip-path="url(#clip0_1_4683)">
<path d="M79.0229 131.218C77.2445 131.218 75.7979 132.664 75.7979 134.443C75.7979 136.221 77.2445 137.667 79.0229 137.667C80.8007 137.667 82.2473 136.221 82.2473 134.443C82.2473 132.664 80.8007 131.218 79.0229 131.218ZM79.0229 135.469C78.4564 135.469 77.9958 135.009 77.9958 134.443C77.9958 133.876 78.4564 133.416 79.0229 133.416C79.5888 133.416 80.05 133.876 80.05 134.443C80.05 135.009 79.5888 135.469 79.0229 135.469Z" fill="#EF8B54"/>
<path d="M87.2329 131.218C85.4545 131.218 84.0079 132.664 84.0079 134.443C84.0079 136.221 85.455 137.667 87.2329 137.667C89.0107 137.667 90.4572 136.221 90.4572 134.443C90.4572 132.664 89.0107 131.218 87.2329 131.218ZM87.2329 135.469C86.6664 135.469 86.2058 135.009 86.2058 134.443C86.2058 133.876 86.6664 133.416 87.2329 133.416C87.7988 133.416 88.26 133.876 88.26 134.443C88.26 135.009 87.7988 135.469 87.2329 135.469Z" fill="#EF8B54"/>
<path d="M95.4429 131.218C93.6645 131.218 92.2179 132.664 92.2179 134.443C92.2179 136.221 93.6645 137.667 95.4429 137.667C97.2207 137.667 98.6672 136.221 98.6672 134.443C98.6672 132.664 97.2207 131.218 95.4429 131.218ZM95.4429 135.469C94.8764 135.469 94.4158 135.009 94.4158 134.443C94.4158 133.876 94.8764 133.416 95.4429 133.416C96.0088 133.416 96.47 133.876 96.47 134.443C96.47 135.009 96.0093 135.469 95.4429 135.469Z" fill="#EF8B54"/>
<path d="M141.164 127H75.8357C73.1692 127 71 129.169 71 131.836V197.164C71 199.83 73.1692 202 75.8357 202H141.164C143.83 202 146 199.83 146 197.164V180.518C146 179.911 145.508 179.419 144.901 179.419C144.294 179.419 143.802 179.911 143.802 180.518V197.164C143.802 198.619 142.619 199.802 141.164 199.802H75.8357C74.3812 199.802 73.1978 198.619 73.1978 197.164V141.947H143.802V173.731C143.802 174.337 144.294 174.829 144.901 174.829C145.508 174.829 146 174.337 146 173.731V131.836C146 129.169 143.831 127 141.164 127V127ZM143.802 139.749H73.1978V131.836C73.1978 130.381 74.3812 129.198 75.8357 129.198H141.164C142.619 129.198 143.802 130.381 143.802 131.836V139.749Z" fill="#EF8B54"/>
<path d="M138.599 149.695C138.599 147.778 137.04 146.22 135.125 146.22H81.7111C79.7954 146.22 78.2367 147.778 78.2367 149.695V156.149C78.2367 156.756 78.7288 157.248 79.3353 157.248C79.9424 157.248 80.4345 156.756 80.4345 156.149V149.695C80.4345 148.99 81.0073 148.418 81.7111 148.418H135.125C135.828 148.418 136.401 148.99 136.401 149.695V169.81C136.401 170.514 135.828 171.087 135.125 171.087H131.666L120.402 158.392C120.073 158.022 119.601 157.801 119.105 157.786C118.61 157.77 118.126 157.964 117.775 158.314L111.809 164.277L103.772 155.22C103.443 154.849 102.971 154.628 102.476 154.613C101.981 154.601 101.496 154.791 101.145 155.141L85.1924 171.087H81.7111C81.0073 171.087 80.4345 170.514 80.4345 169.81V163.083C80.4345 162.476 79.9424 161.984 79.3353 161.984C78.7288 161.984 78.2367 162.476 78.2367 163.083V169.81C78.2367 171.726 79.7954 173.284 81.7111 173.284H135.125C137.04 173.284 138.599 171.726 138.599 169.81V149.695ZM88.3012 171.087L102.405 156.99L113.098 169.04C113.5 169.495 114.195 169.536 114.649 169.133C115.103 168.73 115.144 168.036 114.742 167.582L113.27 165.924L119.035 160.163L128.728 171.087H88.3012Z" fill="#EF8B54"/>
<path d="M81.7105 176.361C79.7948 176.361 78.2367 177.919 78.2367 179.835V190.615C78.2367 192.531 79.7948 194.089 81.7105 194.089H102.966C104.881 194.089 106.44 192.531 106.44 190.615V179.835C106.44 177.919 104.881 176.361 102.966 176.361H81.7105ZM104.242 179.835V190.615C104.242 191.319 103.669 191.891 102.966 191.891H81.7105C81.0067 191.891 80.4345 191.319 80.4345 190.615V179.835C80.4345 179.131 81.0067 178.559 81.7105 178.559H102.966C103.669 178.559 104.242 179.131 104.242 179.835Z" fill="#EF8B54"/>
<path d="M113.87 176.361C111.954 176.361 110.396 177.919 110.396 179.835V190.615C110.396 192.531 111.954 194.089 113.87 194.089H135.125C137.04 194.089 138.599 192.531 138.599 190.615V179.835C138.599 177.919 137.04 176.361 135.125 176.361H113.87ZM136.401 179.835V190.615C136.401 191.319 135.828 191.891 135.125 191.891H113.87C113.166 191.891 112.594 191.319 112.594 190.615V179.835C112.594 179.131 113.166 178.559 113.87 178.559H135.125C135.828 178.559 136.401 179.131 136.401 179.835Z" fill="#EF8B54"/>
<path d="M83.8408 182.704H86.8117C87.4188 182.704 87.9104 182.213 87.9104 181.606C87.9104 180.998 87.4188 180.506 86.8117 180.506H83.8408C83.2337 180.506 82.7416 180.998 82.7416 181.606C82.7416 182.213 83.2337 182.704 83.8408 182.704Z" fill="#EF8B54"/>
<path d="M83.8408 186.427H85.3858C85.9923 186.427 86.4844 185.935 86.4844 185.328C86.4844 184.721 85.9923 184.229 85.3858 184.229H83.8408C83.2337 184.229 82.7416 184.721 82.7416 185.328C82.7416 185.935 83.2337 186.427 83.8408 186.427Z" fill="#EF8B54"/>
<path d="M100.836 184.229H96.7338C96.1266 184.229 95.6346 184.721 95.6346 185.328C95.6346 185.935 96.1266 186.427 96.7338 186.427H100.836C101.443 186.427 101.935 185.935 101.935 185.328C101.935 184.721 101.443 184.229 100.836 184.229Z" fill="#EF8B54"/>
<path d="M90.5803 182.704H100.543C101.149 182.704 101.642 182.213 101.642 181.606C101.642 180.998 101.149 180.506 100.543 180.506H90.5803C89.9732 180.506 89.4816 180.998 89.4816 181.606C89.4816 182.213 89.9732 182.704 90.5803 182.704Z" fill="#EF8B54"/>
<path d="M100.543 187.746H97.5715C96.9649 187.746 96.4728 188.237 96.4728 188.844C96.4728 189.452 96.9649 189.944 97.5715 189.944H100.543C101.149 189.944 101.642 189.452 101.642 188.844C101.642 188.237 101.149 187.746 100.543 187.746Z" fill="#EF8B54"/>
<path d="M93.8035 187.746H83.8408C83.2337 187.746 82.7416 188.237 82.7416 188.844C82.7416 189.452 83.2337 189.944 83.8408 189.944H93.8035C94.41 189.944 94.9021 189.452 94.9021 188.844C94.9021 188.237 94.41 187.746 93.8035 187.746Z" fill="#EF8B54"/>
<path d="M88.7921 186.427H93.0711C93.6776 186.427 94.1697 185.935 94.1697 185.328C94.1697 184.721 93.6776 184.229 93.0711 184.229H88.7921C88.1856 184.229 87.6935 184.721 87.6935 185.328C87.6935 185.935 88.1856 186.427 88.7921 186.427Z" fill="#EF8B54"/>
<path d="M116 182.704H118.971C119.578 182.704 120.069 182.213 120.069 181.606C120.069 180.998 119.578 180.506 118.971 180.506H116C115.393 180.506 114.901 180.998 114.901 181.606C114.901 182.213 115.393 182.704 116 182.704Z" fill="#EF8B54"/>
<path d="M116 186.427H117.545C118.151 186.427 118.643 185.935 118.643 185.328C118.643 184.721 118.151 184.229 117.545 184.229H116C115.393 184.229 114.901 184.721 114.901 185.328C114.901 185.935 115.393 186.427 116 186.427Z" fill="#EF8B54"/>
<path d="M132.995 184.229H128.893C128.286 184.229 127.794 184.721 127.794 185.328C127.794 185.935 128.286 186.427 128.893 186.427H132.995C133.601 186.427 134.094 185.935 134.094 185.328C134.094 184.721 133.601 184.229 132.995 184.229Z" fill="#EF8B54"/>
<path d="M122.739 182.704H132.702C133.309 182.704 133.801 182.213 133.801 181.606C133.801 180.998 133.309 180.506 132.702 180.506H122.739C122.132 180.506 121.64 180.998 121.64 181.606C121.64 182.213 122.132 182.704 122.739 182.704Z" fill="#EF8B54"/>
<path d="M132.702 187.746H129.731C129.124 187.746 128.632 188.237 128.632 188.844C128.632 189.452 129.124 189.944 129.731 189.944H132.702C133.309 189.944 133.801 189.452 133.801 188.844C133.801 188.237 133.309 187.746 132.702 187.746Z" fill="#EF8B54"/>
<path d="M125.963 187.746H116C115.393 187.746 114.901 188.237 114.901 188.844C114.901 189.452 115.393 189.944 116 189.944H125.963C126.569 189.944 127.061 189.452 127.061 188.844C127.061 188.237 126.569 187.746 125.963 187.746Z" fill="#EF8B54"/>
<path d="M120.951 186.427H125.23C125.837 186.427 126.329 185.935 126.329 185.328C126.329 184.721 125.837 184.229 125.23 184.229H120.951C120.345 184.229 119.853 184.721 119.853 185.328C119.853 185.935 120.345 186.427 120.951 186.427Z" fill="#EF8B54"/>
<path d="M130.96 154.361C130.96 152.053 129.083 150.176 126.775 150.176C124.468 150.176 122.591 152.053 122.591 154.361C122.591 156.668 124.468 158.546 126.775 158.546C129.083 158.546 130.96 156.668 130.96 154.361ZM124.788 154.361C124.788 153.265 125.679 152.374 126.775 152.374C127.871 152.374 128.762 153.265 128.762 154.361C128.762 155.456 127.871 156.348 126.775 156.348C125.679 156.348 124.788 155.456 124.788 154.361Z" fill="#EF8B54"/>
</g>
<defs>
<filter id="filter0_d_1_4683" x="0" y="59" width="220" height="220" filterUnits="userSpaceOnUse" color-interpolation-filters="sRGB">
<feFlood flood-opacity="0" result="BackgroundImageFix"/>
<feColorMatrix in="SourceAlpha" type="matrix" values="0 0 0 0 0 0 0 0 0 0 0 0 0 0 0 0 0 0 127 0" result="hardAlpha"/>
<feOffset dx="2" dy="5"/>
<feGaussianBlur stdDeviation="10"/>
<feColorMatrix type="matrix" values="0 0 0 0 0 0 0 0 0 0 0 0 0 0 0 0 0 0 0.2 0"/>
<feBlend mode="normal" in2="BackgroundImageFix" result="effect1_dropShadow_1_4683"/>
<feBlend mode="normal" in="SourceGraphic" in2="effect1_dropShadow_1_4683" result="shape"/>
</filter>
<clipPath id="clip0_1_4683">
<rect width="75" height="75" fill="white" transform="translate(71 127)"/>
</clipPath>
</defs>
</svg>
