<svg width="255" height="279" viewBox="0 0 255 279" fill="none" xmlns="http://www.w3.org/2000/svg">
<path opacity="0.1" d="M146.003 115.416C139.159 115.416 133.062 113.725 127.713 110.342C122.364 106.959 118.155 102.082 115.087 95.71C112.098 89.2593 110.603 81.5893 110.603 72.7C110.603 63.8107 112.098 56.18 115.087 49.808C118.155 43.3573 122.364 38.4407 127.713 35.058C133.062 31.6753 139.159 29.984 146.003 29.984C152.847 29.984 158.944 31.6753 164.293 35.058C169.642 38.4407 173.812 43.3573 176.801 49.808C179.869 56.18 181.403 63.8107 181.403 72.7C181.403 81.5893 179.869 89.2593 176.801 95.71C173.812 102.082 169.642 106.959 164.293 110.342C158.944 113.725 152.847 115.416 146.003 115.416ZM146.003 99.25C151.038 99.25 154.971 97.0867 157.803 92.76C160.714 88.4333 162.169 81.7467 162.169 72.7C162.169 63.6533 160.714 56.9667 157.803 52.64C154.971 48.3133 151.038 46.15 146.003 46.15C141.047 46.15 137.114 48.3133 134.203 52.64C131.371 56.9667 129.955 63.6533 129.955 72.7C129.955 81.7467 131.371 88.4333 134.203 92.76C137.114 97.0867 141.047 99.25 146.003 99.25ZM251.713 98.424V114H189.291V101.61L221.151 71.52C224.534 68.2947 226.815 65.5413 227.995 63.26C229.175 60.9 229.765 58.5793 229.765 56.298C229.765 52.994 228.625 50.4767 226.343 48.746C224.141 46.9367 220.876 46.032 216.549 46.032C212.931 46.032 209.666 46.74 206.755 48.156C203.845 49.4933 201.406 51.5387 199.439 54.292L185.515 45.324C188.741 40.5253 193.185 36.7887 198.849 34.114C204.513 31.3607 211.003 29.984 218.319 29.984C224.455 29.984 229.805 31.0067 234.367 33.052C239.009 35.0187 242.588 37.8507 245.105 41.548C247.701 45.1667 248.999 49.454 248.999 54.41C248.999 58.894 248.055 63.1027 246.167 67.036C244.279 70.9693 240.621 75.4533 235.193 80.488L216.195 98.424H251.713Z" fill="white"/>
<g filter="url(#filter0_d_1_4556)">
<circle cx="108" cy="164" r="90" fill="#1D1D1D"/>
</g>
<path d="M95.9778 139.211H109.038C109.692 139.211 110.222 138.681 110.222 138.027C110.222 137.373 109.692 136.843 109.038 136.843H95.9778C95.3237 136.843 94.7936 137.373 94.7936 138.027C94.7935 138.681 95.3237 139.211 95.9778 139.211Z" fill="#EF8B54"/>
<path d="M95.9778 144.438H122.098C122.752 144.438 123.282 143.908 123.282 143.254C123.282 142.599 122.752 142.069 122.098 142.069H95.9778C95.3237 142.069 94.7936 142.599 94.7936 143.254C94.7936 143.908 95.3237 144.438 95.9778 144.438Z" fill="#EF8B54"/>
<path d="M95.9778 160.719H109.038C109.692 160.719 110.222 160.189 110.222 159.535C110.222 158.881 109.692 158.351 109.038 158.351H95.9778C95.3237 158.351 94.7936 158.881 94.7936 159.535C94.7935 160.189 95.3237 160.719 95.9778 160.719Z" fill="#EF8B54"/>
<path d="M95.9778 165.946H121.81C122.464 165.946 122.994 165.416 122.994 164.762C122.994 164.108 122.464 163.578 121.81 163.578H95.9778C95.3237 163.578 94.7936 164.108 94.7936 164.762C94.7935 165.416 95.3237 165.946 95.9778 165.946Z" fill="#EF8B54"/>
<path d="M95.9778 182.228H109.038C109.692 182.228 110.222 181.698 110.222 181.044C110.222 180.389 109.692 179.859 109.038 179.859H95.9778C95.3237 179.859 94.7936 180.389 94.7936 181.044C94.7935 181.698 95.3237 182.228 95.9778 182.228Z" fill="#EF8B54"/>
<path d="M121.625 185.086H95.9778C95.3237 185.086 94.7936 185.616 94.7936 186.27C94.7936 186.924 95.3239 187.454 95.9778 187.454H121.625C122.279 187.454 122.809 186.924 122.809 186.27C122.809 185.616 122.279 185.086 121.625 185.086Z" fill="#EF8B54"/>
<path d="M145.386 190.3L138.507 187.541V186.03C140.402 185 141.839 183.233 142.439 181.118C144.738 181.106 146.605 179.232 146.605 176.93C146.605 175.547 145.93 174.318 144.893 173.555V170.411C144.893 164.558 140.131 159.796 134.279 159.796H133.493C132.615 159.796 131.763 159.905 130.947 160.107V153.693C130.947 153.039 130.417 152.509 129.763 152.509H126.246C125.592 152.509 125.062 153.039 125.062 153.693C125.062 154.347 125.592 154.877 126.246 154.877H128.579V161.007C125.471 162.638 123.267 165.762 122.926 169.421H78.3684V154.877H122.282C122.936 154.877 123.466 154.347 123.466 153.693C123.466 153.039 122.936 152.509 122.282 152.509H77.1842C76.5301 152.509 76 153.039 76 153.693V170.605C76 171.259 76.5303 171.789 77.1842 171.789H122.879V173.543C122.683 173.685 122.501 173.844 122.333 174.017H77.1842C76.5301 174.017 76 174.547 76 175.201V192.113C76 192.767 76.5303 193.297 77.1842 193.297H118.374C117.373 194.673 116.625 196.527 116.625 198.926V204.814C116.625 205.468 117.155 206 117.809 206H122.282C122.937 206 123.467 205.47 123.467 204.815C123.467 204.161 122.937 203.631 122.282 203.631H118.993V198.926C118.993 194.001 122.869 192.588 123.027 192.533C123.045 192.527 123.063 192.52 123.081 192.513L129.564 189.974C129.593 190.011 129.624 190.046 129.659 190.08L133.059 193.392C133.281 193.607 133.577 193.728 133.885 193.728C133.892 193.728 133.898 193.728 133.904 193.727C134.219 193.723 134.519 193.592 134.738 193.365L138.064 189.915L144.534 192.51C144.551 192.516 144.574 192.525 144.591 192.531C144.756 192.588 148.631 194.002 148.631 198.926V203.632H138.892H130.485H128.732H127.261H126.071C125.417 203.632 124.887 204.162 124.887 204.816C124.887 205.47 125.417 206 126.071 206H127.261H128.732H130.485H138.892H149.816C150.47 206 151 205.458 151 204.804V198.926C151 193.626 147.349 190.975 145.386 190.3ZM142.746 175.142C143.593 175.298 144.237 176.04 144.237 176.93C144.237 177.821 143.593 178.563 142.746 178.719V175.142ZM125.247 170.411C125.247 165.864 128.946 162.165 133.493 162.165H134.279C138.826 162.165 142.525 165.864 142.525 170.411V172.345C142.523 172.343 142.521 172.341 142.52 172.338C142.509 172.323 142.498 172.308 142.486 172.294C142.475 172.28 142.464 172.266 142.452 172.253C142.438 172.237 142.424 172.222 142.41 172.207C142.399 172.195 142.387 172.184 142.375 172.173C142.359 172.158 142.343 172.143 142.326 172.128C142.314 172.118 142.302 172.109 142.289 172.099C142.272 172.085 142.254 172.072 142.235 172.059C142.222 172.049 142.208 172.041 142.194 172.032C142.176 172.021 142.158 172.009 142.139 171.999C142.123 171.989 142.105 171.981 142.089 171.973C142.072 171.964 142.055 171.956 142.038 171.948C142.017 171.939 141.996 171.931 141.975 171.923C141.96 171.918 141.945 171.912 141.93 171.907C141.906 171.899 141.881 171.893 141.857 171.887C141.846 171.884 141.835 171.88 141.824 171.877C139.247 171.291 138.441 167.959 138.434 167.93C138.331 167.476 137.972 167.124 137.516 167.031C137.06 166.937 136.592 167.12 136.319 167.497C133.203 171.805 126.346 171.848 126.251 171.848C126.251 171.848 126.25 171.848 126.25 171.848C126.249 171.848 126.247 171.848 126.246 171.848C126.205 171.848 126.165 171.85 126.125 171.854C126.113 171.855 126.101 171.858 126.088 171.86C126.061 171.863 126.034 171.866 126.008 171.872C125.991 171.875 125.974 171.881 125.958 171.885C125.937 171.89 125.915 171.894 125.894 171.901C125.875 171.907 125.857 171.915 125.838 171.922C125.821 171.928 125.803 171.933 125.786 171.94C125.764 171.95 125.744 171.96 125.723 171.971C125.71 171.977 125.696 171.983 125.683 171.99C125.661 172.002 125.642 172.015 125.621 172.027C125.609 172.035 125.597 172.041 125.585 172.049C125.566 172.062 125.548 172.076 125.53 172.09C125.518 172.099 125.505 172.108 125.494 172.117C125.477 172.131 125.462 172.146 125.446 172.16C125.434 172.171 125.421 172.182 125.41 172.193C125.395 172.208 125.382 172.223 125.368 172.239C125.356 172.252 125.344 172.264 125.333 172.277C125.321 172.292 125.31 172.308 125.298 172.324C125.287 172.339 125.275 172.353 125.265 172.368C125.258 172.378 125.253 172.388 125.247 172.398V170.411H125.247ZM125.062 175.134V178.727C124.189 178.593 123.518 177.84 123.518 176.931C123.518 176.021 124.189 175.268 125.062 175.134ZM129.301 187.534L122.243 190.298C121.85 190.433 121.389 190.649 120.903 190.947C120.838 190.936 120.772 190.929 120.704 190.929H78.3684V176.385H121.186C121.163 176.564 121.149 176.746 121.149 176.93C121.149 179.24 123.028 181.118 125.338 181.118C125.348 181.118 125.358 181.117 125.369 181.117C125.968 183.232 127.405 185 129.301 186.03V187.534ZM136.138 188.361C136.138 188.362 136.138 188.364 136.138 188.365V188.499L133.859 190.865L131.669 188.732V186.869C132.151 186.959 132.647 187.008 133.155 187.008H134.653C135.161 187.008 135.657 186.959 136.138 186.869V188.361ZM134.654 184.64H133.155C129.998 184.64 127.43 182.072 127.43 178.915V174.156C129.497 173.978 133.801 173.268 136.869 170.428C137.496 171.667 138.587 173.16 140.377 173.893V178.916C140.377 182.072 137.81 184.64 134.654 184.64Z" fill="#EF8B54"/>
<path d="M88.098 137.9C88.752 137.9 89.2822 137.37 89.2822 136.716C89.2822 136.062 88.7519 135.532 88.098 135.532H82.1249C81.4709 135.532 80.9408 136.062 80.9408 136.716V144.565C80.9408 145.219 81.471 145.749 82.1249 145.749H90.359C91.013 145.749 91.5432 145.219 91.5432 144.565V142.447C91.5432 141.793 91.0129 141.263 90.359 141.263C89.7049 141.263 89.1748 141.793 89.1748 142.447V143.38H83.3091V137.9H88.098Z" fill="#EF8B54"/>
<path d="M92.6737 135.854C92.1976 135.406 91.4482 135.428 90.9996 135.904L87.0661 140.078L85.8501 138.753C85.4079 138.271 84.6586 138.239 84.177 138.681C83.6952 139.124 83.6633 139.873 84.1054 140.355L86.1822 142.617C86.4047 142.86 86.7179 142.998 87.0469 143.001C87.0495 143.001 87.0522 143.001 87.0547 143.001C87.3807 143.001 87.6926 142.866 87.9164 142.629L92.723 137.528C93.1717 137.052 93.1494 136.303 92.6737 135.854Z" fill="#EF8B54"/>
<path d="M88.098 159.408C88.752 159.408 89.2822 158.878 89.2822 158.224C89.2822 157.57 88.7519 157.04 88.098 157.04H82.1249C81.4709 157.04 80.9408 157.57 80.9408 158.224V166.073C80.9408 166.727 81.471 167.257 82.1249 167.257H90.359C91.013 167.257 91.5432 166.727 91.5432 166.073V163.955C91.5432 163.301 91.0129 162.771 90.359 162.771C89.7049 162.771 89.1748 163.301 89.1748 163.955V164.889H83.3091V159.408H88.098V159.408Z" fill="#EF8B54"/>
<path d="M92.6737 157.362C92.1976 156.914 91.4482 156.936 90.9996 157.412L87.0661 161.586L85.8501 160.261C85.4079 159.779 84.6586 159.748 84.177 160.19C83.6952 160.632 83.6633 161.381 84.1054 161.863L86.1824 164.125C86.4049 164.368 86.718 164.507 87.0471 164.509C87.0497 164.509 87.0523 164.509 87.0548 164.509C87.3809 164.509 87.6928 164.374 87.9166 164.137L92.7232 159.037C93.1717 158.561 93.1494 157.811 92.6737 157.362Z" fill="#EF8B54"/>
<path d="M90.359 184.28C89.7049 184.28 89.1748 184.81 89.1748 185.464V186.397H83.3091V180.917H88.0981C88.7522 180.917 89.2823 180.386 89.2823 179.733C89.2823 179.078 88.752 178.548 88.0981 178.548H82.1249C81.4709 178.548 80.9408 179.078 80.9408 179.733V187.581C80.9408 188.236 81.471 188.765 82.1249 188.765H90.359C91.013 188.765 91.5432 188.236 91.5432 187.581V185.464C91.5432 184.81 91.0129 184.28 90.359 184.28Z" fill="#EF8B54"/>
<path d="M90.9996 178.921L87.0661 183.094L85.8501 181.77C85.4079 181.288 84.6586 181.256 84.177 181.698C83.6952 182.141 83.6633 182.89 84.1054 183.371L86.1824 185.634C86.4049 185.876 86.718 186.015 87.0471 186.017C87.0497 186.017 87.0523 186.017 87.0548 186.017C87.3809 186.017 87.6928 185.883 87.9166 185.645L92.7232 180.545C93.1717 180.069 93.1494 179.32 92.6737 178.871C92.1976 178.422 91.4482 178.445 90.9996 178.921Z" fill="#EF8B54"/>
<path d="M77.1842 150.281H129.763C130.417 150.281 130.947 149.751 130.947 149.097V132.184C130.947 131.53 130.417 131 129.763 131H126.246C125.592 131 125.062 131.53 125.062 132.184C125.062 132.838 125.592 133.368 126.246 133.368H128.579V147.912H78.3684V133.368H122.282C122.936 133.368 123.466 132.838 123.466 132.184C123.466 131.53 122.936 131 122.282 131H77.1842C76.5303 131 76 131.53 76 132.184V149.097C76 149.751 76.5303 150.281 77.1842 150.281Z" fill="#EF8B54"/>
<defs>
<filter id="filter0_d_1_4556" x="0" y="59" width="220" height="220" filterUnits="userSpaceOnUse" color-interpolation-filters="sRGB">
<feFlood flood-opacity="0" result="BackgroundImageFix"/>
<feColorMatrix in="SourceAlpha" type="matrix" values="0 0 0 0 0 0 0 0 0 0 0 0 0 0 0 0 0 0 127 0" result="hardAlpha"/>
<feOffset dx="2" dy="5"/>
<feGaussianBlur stdDeviation="10"/>
<feColorMatrix type="matrix" values="0 0 0 0 0 0 0 0 0 0 0 0 0 0 0 0 0 0 0.2 0"/>
<feBlend mode="normal" in2="BackgroundImageFix" result="effect1_dropShadow_1_4556"/>
<feBlend mode="normal" in="SourceGraphic" in2="effect1_dropShadow_1_4556" result="shape"/>
</filter>
</defs>
</svg>
