<svg width="296" height="66" viewBox="0 0 296 66" fill="none" xmlns="http://www.w3.org/2000/svg">
<g filter="url(#filter0_d_1_5799)">
<rect x="7.99988" y="4" width="280" height="51.0417" rx="24.0625" fill="white"/>
</g>
<path d="M7.99988 28.0625C7.99988 14.7732 18.773 4 32.0624 4H61.9582V55.0417H32.0624C18.773 55.0417 7.99988 44.2685 7.99988 30.9792V28.0625Z" fill="#FAFAFA"/>
<path d="M80.9705 28.2687C82.0293 28.2687 82.8688 28.5788 83.4891 29.1991C84.1201 29.8087 84.4355 30.7017 84.4355 31.878V36.7708H83.2966V31.9903C83.2966 31.1134 83.0774 30.445 82.6389 29.9851C82.2004 29.5253 81.5748 29.2953 80.762 29.2953C79.853 29.2953 79.1311 29.568 78.5964 30.1135C78.0724 30.6482 77.8103 31.3914 77.8103 32.3433V36.7708H76.6714V24.8678H77.8103V29.8087C78.1205 29.3167 78.5483 28.9371 79.0937 28.6697C79.6391 28.4023 80.2647 28.2687 80.9705 28.2687ZM91.9712 36.2574C91.7574 36.4499 91.49 36.5996 91.1692 36.7066C90.859 36.8028 90.5328 36.851 90.1906 36.851C89.3992 36.851 88.7896 36.6371 88.3619 36.2093C87.9341 35.7815 87.7202 35.1773 87.7202 34.3966V29.2953H86.2123V28.3328H87.7202V26.488H88.8592V28.3328H91.4258V29.2953H88.8592V34.3324C88.8592 34.8351 88.9821 35.2201 89.2281 35.4874C89.4848 35.7441 89.8484 35.8724 90.319 35.8724C90.5542 35.8724 90.7788 35.835 90.9927 35.7601C91.2173 35.6853 91.4098 35.5783 91.5702 35.4393L91.9712 36.2574ZM98.2689 36.2574C98.055 36.4499 97.7876 36.5996 97.4668 36.7066C97.1566 36.8028 96.8305 36.851 96.4882 36.851C95.6968 36.851 95.0873 36.6371 94.6595 36.2093C94.2317 35.7815 94.0178 35.1773 94.0178 34.3966V29.2953H92.5099V28.3328H94.0178V26.488H95.1568V28.3328H97.7234V29.2953H95.1568V34.3324C95.1568 34.8351 95.2798 35.2201 95.5257 35.4874C95.7824 35.7441 96.146 35.8724 96.6166 35.8724C96.8518 35.8724 97.0764 35.835 97.2903 35.7601C97.5149 35.6853 97.7074 35.5783 97.8678 35.4393L98.2689 36.2574ZM104.69 28.2687C105.481 28.2687 106.197 28.4505 106.839 28.8141C107.481 29.167 107.983 29.6696 108.347 30.322C108.711 30.9744 108.892 31.7176 108.892 32.5518C108.892 33.3967 108.711 34.1453 108.347 34.7976C107.983 35.45 107.481 35.958 106.839 36.3216C106.208 36.6745 105.492 36.851 104.69 36.851C104.005 36.851 103.385 36.7119 102.829 36.4339C102.283 36.1451 101.834 35.728 101.481 35.1826V39.8828H100.342V28.3328H101.433V30.0012C101.775 29.4451 102.224 29.0173 102.781 28.7178C103.347 28.4184 103.984 28.2687 104.69 28.2687ZM104.609 35.8403C105.198 35.8403 105.732 35.7067 106.213 35.4393C106.695 35.1612 107.069 34.7709 107.336 34.2683C107.614 33.7656 107.753 33.1935 107.753 32.5518C107.753 31.9101 107.614 31.3433 107.336 30.8514C107.069 30.3487 106.695 29.9584 106.213 29.6803C105.732 29.4023 105.198 29.2632 104.609 29.2632C104.01 29.2632 103.47 29.4023 102.989 29.6803C102.519 29.9584 102.144 30.3487 101.866 30.8514C101.599 31.3433 101.465 31.9101 101.465 32.5518C101.465 33.1935 101.599 33.7656 101.866 34.2683C102.144 34.7709 102.519 35.1612 102.989 35.4393C103.47 35.7067 104.01 35.8403 104.609 35.8403ZM113.476 36.851C112.792 36.851 112.134 36.7547 111.503 36.5622C110.883 36.359 110.396 36.1077 110.043 35.8083L110.557 34.9099C110.909 35.188 111.353 35.4179 111.888 35.5997C112.423 35.7708 112.979 35.8564 113.556 35.8564C114.326 35.8564 114.893 35.7387 115.257 35.5035C115.631 35.2575 115.818 34.9153 115.818 34.4768C115.818 34.1667 115.717 33.926 115.513 33.7549C115.31 33.5731 115.054 33.4394 114.743 33.3539C114.433 33.2576 114.022 33.1667 113.508 33.0812C112.824 32.9528 112.273 32.8245 111.856 32.6962C111.439 32.5571 111.081 32.3272 110.781 32.0064C110.492 31.6855 110.348 31.2417 110.348 30.6749C110.348 29.9691 110.642 29.3916 111.23 28.9424C111.818 28.4932 112.637 28.2687 113.685 28.2687C114.23 28.2687 114.775 28.3435 115.321 28.4932C115.866 28.6323 116.315 28.8194 116.668 29.0547L116.171 29.9691C115.476 29.4878 114.647 29.2472 113.685 29.2472C112.957 29.2472 112.407 29.3755 112.032 29.6322C111.669 29.8889 111.487 30.2257 111.487 30.6428C111.487 30.9637 111.589 31.2203 111.792 31.4128C112.006 31.6053 112.268 31.7497 112.578 31.846C112.888 31.9315 113.316 32.0224 113.861 32.1187C114.535 32.247 115.075 32.3753 115.481 32.5037C115.888 32.632 116.235 32.8512 116.524 33.1614C116.813 33.4715 116.957 33.8993 116.957 34.4447C116.957 35.1826 116.647 35.7708 116.027 36.2093C115.417 36.6371 114.567 36.851 113.476 36.851ZM119.175 30.0172C118.94 30.0172 118.737 29.9317 118.565 29.7605C118.405 29.5894 118.325 29.3809 118.325 29.1349C118.325 28.8889 118.405 28.6857 118.565 28.5253C118.737 28.3542 118.94 28.2687 119.175 28.2687C119.41 28.2687 119.614 28.3542 119.785 28.5253C119.956 28.6857 120.041 28.8889 120.041 29.1349C120.041 29.3809 119.956 29.5894 119.785 29.7605C119.614 29.9317 119.41 30.0172 119.175 30.0172ZM119.175 36.851C118.94 36.851 118.737 36.7654 118.565 36.5943C118.405 36.4232 118.325 36.2146 118.325 35.9687C118.325 35.7227 118.405 35.5195 118.565 35.3591C118.737 35.188 118.94 35.1024 119.175 35.1024C119.41 35.1024 119.614 35.188 119.785 35.3591C119.956 35.5195 120.041 35.7227 120.041 35.9687C120.041 36.2146 119.956 36.4232 119.785 36.5943C119.614 36.7654 119.41 36.851 119.175 36.851ZM126.487 23.2637H127.53L122.236 38.3749H121.194L126.487 23.2637ZM130.811 23.2637H131.854L126.56 38.3749H125.517L130.811 23.2637ZM142.307 28.2687C143.365 28.2687 144.194 28.5735 144.793 29.183C145.403 29.7926 145.707 30.691 145.707 31.878V36.7708H144.569V31.9903C144.569 31.1134 144.355 30.445 143.927 29.9851C143.51 29.5253 142.916 29.2953 142.146 29.2953C141.269 29.2953 140.579 29.568 140.077 30.1135C139.574 30.6482 139.323 31.3914 139.323 32.3433V36.7708H138.184V31.9903C138.184 31.1134 137.97 30.445 137.542 29.9851C137.125 29.5253 136.526 29.2953 135.746 29.2953C134.879 29.2953 134.19 29.568 133.676 30.1135C133.174 30.6482 132.922 31.3914 132.922 32.3433V36.7708H131.783V28.3328H132.874V29.8728C133.174 29.3595 133.591 28.9638 134.125 28.6857C134.66 28.4077 135.275 28.2687 135.97 28.2687C136.676 28.2687 137.286 28.4184 137.799 28.7178C138.323 29.0173 138.713 29.4611 138.97 30.0493C139.28 29.4932 139.724 29.0601 140.301 28.7499C140.89 28.4291 141.558 28.2687 142.307 28.2687ZM155.73 28.3328L151.511 37.7814C151.169 38.5728 150.773 39.1342 150.324 39.4658C149.875 39.7973 149.335 39.963 148.704 39.963C148.297 39.963 147.918 39.8989 147.565 39.7705C147.212 39.6422 146.907 39.4497 146.65 39.193L147.18 38.3428C147.608 38.7706 148.121 38.9845 148.72 38.9845C149.105 38.9845 149.431 38.8776 149.698 38.6637C149.976 38.4498 150.233 38.0862 150.468 37.5728L150.837 36.7547L147.067 28.3328H148.255L151.431 35.5035L154.607 28.3328H155.73ZM169.64 28.3328L166.448 36.7708H165.373L162.71 29.8568L160.047 36.7708H158.972L155.796 28.3328H156.887L159.534 35.5035L162.245 28.3328H163.223L165.918 35.5035L168.597 28.3328H169.64ZM178.467 32.9047H171.409C171.473 33.7817 171.81 34.4928 172.419 35.0383C173.029 35.573 173.799 35.8403 174.729 35.8403C175.253 35.8403 175.735 35.7494 176.173 35.5676C176.611 35.3751 176.991 35.0971 177.312 34.7335L177.954 35.4714C177.579 35.9205 177.109 36.2628 176.542 36.498C175.986 36.7333 175.371 36.851 174.697 36.851C173.831 36.851 173.061 36.6692 172.387 36.3055C171.724 35.9312 171.205 35.4179 170.831 34.7655C170.457 34.1132 170.27 33.3753 170.27 32.5518C170.27 31.7283 170.446 30.9904 170.799 30.338C171.163 29.6857 171.655 29.1777 172.275 28.8141C172.906 28.4505 173.612 28.2687 174.392 28.2687C175.173 28.2687 175.874 28.4505 176.494 28.8141C177.114 29.1777 177.601 29.6857 177.954 30.338C178.307 30.9797 178.483 31.7176 178.483 32.5518L178.467 32.9047ZM174.392 29.2472C173.58 29.2472 172.895 29.5092 172.339 30.0332C171.794 30.5466 171.483 31.2203 171.409 32.0545H177.392C177.317 31.2203 177.002 30.5466 176.446 30.0332C175.9 29.5092 175.216 29.2472 174.392 29.2472ZM185.149 28.2687C185.94 28.2687 186.656 28.4505 187.298 28.8141C187.94 29.167 188.442 29.6696 188.806 30.322C189.17 30.9744 189.351 31.7176 189.351 32.5518C189.351 33.386 189.17 34.1292 188.806 34.7816C188.442 35.4339 187.94 35.9419 187.298 36.3055C186.656 36.6692 185.94 36.851 185.149 36.851C184.443 36.851 183.806 36.7012 183.24 36.4018C182.683 36.1023 182.234 35.6692 181.892 35.1024V36.7708H180.801V24.8678H181.94V29.937C182.293 29.3916 182.742 28.9798 183.288 28.7018C183.844 28.413 184.464 28.2687 185.149 28.2687ZM185.068 35.8403C185.657 35.8403 186.191 35.7067 186.673 35.4393C187.154 35.1612 187.528 34.7709 187.795 34.2683C188.073 33.7656 188.213 33.1935 188.213 32.5518C188.213 31.9101 188.073 31.338 187.795 30.8353C187.528 30.3327 187.154 29.9477 186.673 29.6803C186.191 29.4023 185.657 29.2632 185.068 29.2632C184.469 29.2632 183.929 29.4023 183.448 29.6803C182.978 29.9477 182.603 30.3327 182.325 30.8353C182.058 31.338 181.924 31.9101 181.924 32.5518C181.924 33.1935 182.058 33.7656 182.325 34.2683C182.603 34.7709 182.978 35.1612 183.448 35.4393C183.929 35.7067 184.469 35.8403 185.068 35.8403ZM193.935 36.851C193.251 36.851 192.593 36.7547 191.962 36.5622C191.342 36.359 190.855 36.1077 190.502 35.8083L191.016 34.9099C191.368 35.188 191.812 35.4179 192.347 35.5997C192.882 35.7708 193.438 35.8564 194.015 35.8564C194.785 35.8564 195.352 35.7387 195.716 35.5035C196.09 35.2575 196.277 34.9153 196.277 34.4768C196.277 34.1667 196.176 33.926 195.972 33.7549C195.769 33.5731 195.513 33.4394 195.202 33.3539C194.892 33.2576 194.481 33.1667 193.967 33.0812C193.283 32.9528 192.732 32.8245 192.315 32.6962C191.898 32.5571 191.54 32.3272 191.24 32.0064C190.951 31.6855 190.807 31.2417 190.807 30.6749C190.807 29.9691 191.101 29.3916 191.689 28.9424C192.277 28.4932 193.096 28.2687 194.144 28.2687C194.689 28.2687 195.234 28.3435 195.78 28.4932C196.325 28.6323 196.774 28.8194 197.127 29.0547L196.63 29.9691C195.935 29.4878 195.106 29.2472 194.144 29.2472C193.416 29.2472 192.866 29.3755 192.491 29.6322C192.128 29.8889 191.946 30.2257 191.946 30.6428C191.946 30.9637 192.048 31.2203 192.251 31.4128C192.465 31.6053 192.727 31.7497 193.037 31.846C193.347 31.9315 193.775 32.0224 194.32 32.1187C194.994 32.247 195.534 32.3753 195.94 32.5037C196.347 32.632 196.694 32.8512 196.983 33.1614C197.272 33.4715 197.416 33.8993 197.416 34.4447C197.416 35.1826 197.106 35.7708 196.486 36.2093C195.876 36.6371 195.026 36.851 193.935 36.851ZM199.522 28.3328H200.661V36.7708H199.522V28.3328ZM200.099 26.488C199.864 26.488 199.666 26.4078 199.506 26.2474C199.345 26.087 199.265 25.8945 199.265 25.6699C199.265 25.456 199.345 25.2689 199.506 25.1085C199.666 24.948 199.864 24.8678 200.099 24.8678C200.335 24.8678 200.532 24.948 200.693 25.1085C200.853 25.2582 200.933 25.44 200.933 25.6539C200.933 25.8892 200.853 26.087 200.693 26.2474C200.532 26.4078 200.335 26.488 200.099 26.488ZM208.273 36.2574C208.059 36.4499 207.792 36.5996 207.471 36.7066C207.161 36.8028 206.835 36.851 206.493 36.851C205.701 36.851 205.092 36.6371 204.664 36.2093C204.236 35.7815 204.022 35.1773 204.022 34.3966V29.2953H202.514V28.3328H204.022V26.488H205.161V28.3328H207.728V29.2953H205.161V34.3324C205.161 34.8351 205.284 35.2201 205.53 35.4874C205.787 35.7441 206.151 35.8724 206.621 35.8724C206.856 35.8724 207.081 35.835 207.295 35.7601C207.519 35.6853 207.712 35.5783 207.872 35.4393L208.273 36.2574ZM217.396 32.9047H210.338C210.402 33.7817 210.739 34.4928 211.348 35.0383C211.958 35.573 212.728 35.8403 213.658 35.8403C214.183 35.8403 214.664 35.7494 215.102 35.5676C215.541 35.3751 215.92 35.0971 216.241 34.7335L216.883 35.4714C216.509 35.9205 216.038 36.2628 215.471 36.498C214.915 36.7333 214.3 36.851 213.626 36.851C212.76 36.851 211.99 36.6692 211.316 36.3055C210.653 35.9312 210.135 35.4179 209.76 34.7655C209.386 34.1132 209.199 33.3753 209.199 32.5518C209.199 31.7283 209.375 30.9904 209.728 30.338C210.092 29.6857 210.584 29.1777 211.204 28.8141C211.835 28.4505 212.541 28.2687 213.322 28.2687C214.102 28.2687 214.803 28.4505 215.423 28.8141C216.043 29.1777 216.53 29.6857 216.883 30.338C217.236 30.9797 217.412 31.7176 217.412 32.5518L217.396 32.9047ZM213.322 29.2472C212.509 29.2472 211.824 29.5092 211.268 30.0332C210.723 30.5466 210.413 31.2203 210.338 32.0545H216.321C216.247 31.2203 215.931 30.5466 215.375 30.0332C214.83 29.5092 214.145 29.2472 213.322 29.2472ZM219.843 36.851C219.608 36.851 219.404 36.7654 219.233 36.5943C219.073 36.4232 218.993 36.2146 218.993 35.9687C218.993 35.7227 219.073 35.5195 219.233 35.3591C219.404 35.188 219.608 35.1024 219.843 35.1024C220.078 35.1024 220.281 35.188 220.452 35.3591C220.623 35.5195 220.709 35.7227 220.709 35.9687C220.709 36.2146 220.623 36.4232 220.452 36.5943C220.281 36.7654 220.078 36.851 219.843 36.851ZM226.344 36.851C225.531 36.851 224.799 36.6692 224.146 36.3055C223.494 35.9312 222.981 35.4179 222.606 34.7655C222.232 34.1132 222.045 33.3753 222.045 32.5518C222.045 31.7283 222.232 30.9904 222.606 30.338C222.981 29.6857 223.494 29.1777 224.146 28.8141C224.799 28.4505 225.531 28.2687 226.344 28.2687C227.157 28.2687 227.889 28.4505 228.542 28.8141C229.194 29.1777 229.702 29.6857 230.066 30.338C230.44 30.9904 230.627 31.7283 230.627 32.5518C230.627 33.3753 230.44 34.1132 230.066 34.7655C229.702 35.4179 229.194 35.9312 228.542 36.3055C227.889 36.6692 227.157 36.851 226.344 36.851ZM226.344 35.8403C226.943 35.8403 227.478 35.7067 227.948 35.4393C228.429 35.1612 228.804 34.7709 229.071 34.2683C229.338 33.7656 229.472 33.1935 229.472 32.5518C229.472 31.9101 229.338 31.338 229.071 30.8353C228.804 30.3327 228.429 29.9477 227.948 29.6803C227.478 29.4023 226.943 29.2632 226.344 29.2632C225.745 29.2632 225.205 29.4023 224.724 29.6803C224.253 29.9477 223.879 30.3327 223.601 30.8353C223.333 31.338 223.2 31.9101 223.2 32.5518C223.2 33.1935 223.333 33.7656 223.601 34.2683C223.879 34.7709 224.253 35.1612 224.724 35.4393C225.205 35.7067 225.745 35.8403 226.344 35.8403ZM234.043 29.9851C234.311 29.4183 234.706 28.9905 235.23 28.7018C235.765 28.413 236.423 28.2687 237.203 28.2687V29.3755L236.931 29.3595C236.043 29.3595 235.348 29.6322 234.845 30.1776C234.343 30.723 234.091 31.4877 234.091 32.4716V36.7708H232.952V28.3328H234.043V29.9851ZM247 28.3328V35.7441C247 37.1771 246.647 38.2359 245.941 38.9203C245.246 39.6155 244.192 39.963 242.781 39.963C242 39.963 241.257 39.8454 240.551 39.6101C239.856 39.3855 239.289 39.0701 238.85 38.6637L239.428 37.7974C239.834 38.161 240.326 38.4444 240.904 38.6476C241.492 38.8508 242.107 38.9524 242.749 38.9524C243.818 38.9524 244.604 38.7011 245.107 38.1985C245.609 37.7065 245.861 36.9365 245.861 35.8885V34.8137C245.508 35.3484 245.043 35.7548 244.465 36.0328C243.898 36.3109 243.267 36.4499 242.572 36.4499C241.781 36.4499 241.059 36.2788 240.406 35.9366C239.765 35.5837 239.257 35.0971 238.883 34.4768C238.519 33.8458 238.337 33.1346 238.337 32.3433C238.337 31.5519 238.519 30.846 238.883 30.2257C239.257 29.6055 239.765 29.1242 240.406 28.782C241.048 28.4398 241.77 28.2687 242.572 28.2687C243.289 28.2687 243.936 28.413 244.513 28.7018C245.091 28.9905 245.556 29.4076 245.909 29.953V28.3328H247ZM242.684 35.4393C243.294 35.4393 243.845 35.311 244.337 35.0543C244.829 34.7869 245.208 34.418 245.476 33.9474C245.754 33.4769 245.893 32.9421 245.893 32.3433C245.893 31.7444 245.754 31.215 245.476 30.7551C245.208 30.2846 244.829 29.921 244.337 29.6643C243.855 29.3969 243.305 29.2632 242.684 29.2632C242.075 29.2632 241.524 29.3916 241.032 29.6482C240.551 29.9049 240.171 30.2685 239.893 30.7391C239.626 31.2096 239.492 31.7444 239.492 32.3433C239.492 32.9421 239.626 33.4769 239.893 33.9474C240.171 34.418 240.551 34.7869 241.032 35.0543C241.524 35.311 242.075 35.4393 242.684 35.4393ZM253.489 23.2637H254.532L249.238 38.3749H248.195L253.489 23.2637Z" fill="#31BE00"/>
<g clip-path="url(#clip0_1_5799)">
<path d="M43.2582 26.8777H42.1188V25.3586C42.1188 22.4268 39.7338 20.0417 36.802 20.0417C33.8702 20.0417 31.4852 22.4268 31.4852 25.3586V26.8777H30.3459C30.1359 26.8777 29.9661 27.0476 29.9661 27.2575V36.7518C29.9661 37.5896 30.6473 38.2709 31.4852 38.2709H42.1189C42.9567 38.2709 43.6379 37.5896 43.6379 36.7518V27.2575C43.6379 27.0476 43.4681 26.8777 43.2582 26.8777ZM37.9391 34.811C37.951 34.9182 37.9165 35.0258 37.8446 35.1063C37.7726 35.1867 37.6695 35.2327 37.5616 35.2327H36.0425C35.9346 35.2327 35.8314 35.1867 35.7595 35.1063C35.6875 35.0258 35.653 34.9182 35.6649 34.811L35.9045 32.6567C35.5155 32.3737 35.2829 31.926 35.2829 31.435C35.2829 30.5972 35.9642 29.9159 36.802 29.9159C37.6399 29.9159 38.3211 30.5972 38.3211 31.435C38.3211 31.926 38.0886 32.3737 37.6996 32.6567L37.9391 34.811ZM39.8402 26.8777H33.7638V25.3586C33.7638 23.6833 35.1268 22.3204 36.802 22.3204C38.4772 22.3204 39.8402 23.6833 39.8402 25.3586V26.8777V26.8777Z" fill="#31BE00"/>
</g>
<defs>
<filter id="filter0_d_1_5799" x="0.708209" y="0.354166" width="294.583" height="65.6251" filterUnits="userSpaceOnUse" color-interpolation-filters="sRGB">
<feFlood flood-opacity="0" result="BackgroundImageFix"/>
<feColorMatrix in="SourceAlpha" type="matrix" values="0 0 0 0 0 0 0 0 0 0 0 0 0 0 0 0 0 0 127 0" result="hardAlpha"/>
<feOffset dy="3.64583"/>
<feGaussianBlur stdDeviation="3.64583"/>
<feColorMatrix type="matrix" values="0 0 0 0 0 0 0 0 0 0 0 0 0 0 0 0 0 0 0.25 0"/>
<feBlend mode="normal" in2="BackgroundImageFix" result="effect1_dropShadow_1_5799"/>
<feBlend mode="normal" in="SourceGraphic" in2="effect1_dropShadow_1_5799" result="shape"/>
</filter>
<clipPath id="clip0_1_5799">
<rect width="18.2292" height="18.2292" fill="white" transform="translate(27.6875 20.0417)"/>
</clipPath>
</defs>
</svg>
