<svg width="300" height="69" viewBox="0 0 300 69" fill="none" xmlns="http://www.w3.org/2000/svg">
<g filter="url(#filter0_d_1_5337)">
<rect x="10" y="5.00024" width="280" height="50" fill="#FF834E"/>
</g>
<path d="M31.752 29.1442C32.488 29.3256 33.064 29.6562 33.48 30.1362C33.9067 30.6162 34.12 31.1922 34.12 31.8642C34.12 32.5149 33.9173 33.0856 33.512 33.5762C33.1067 34.0669 32.568 34.4456 31.896 34.7122C31.224 34.9682 30.4933 35.0962 29.704 35.0962C28.9573 35.0962 28.2213 34.9789 27.496 34.7442C26.7813 34.4989 26.136 34.1362 25.56 33.6562L25.992 32.8082C26.4827 33.2242 27.0427 33.5442 27.672 33.7682C28.3013 33.9816 28.936 34.0882 29.576 34.0882C30.184 34.0882 30.744 33.9922 31.256 33.8002C31.768 33.6082 32.1733 33.3362 32.472 32.9842C32.7813 32.6216 32.936 32.1949 32.936 31.7042C32.936 31.0536 32.68 30.5522 32.168 30.2002C31.656 29.8482 30.936 29.6722 30.008 29.6722H27.608V28.7122H29.944C30.7333 28.7122 31.3467 28.5469 31.784 28.2162C32.232 27.8749 32.456 27.4056 32.456 26.8082C32.456 26.1469 32.1733 25.6296 31.608 25.2562C31.0427 24.8722 30.3333 24.6802 29.48 24.6802C28.9467 24.6802 28.408 24.7602 27.864 24.9202C27.32 25.0696 26.8027 25.2989 26.312 25.6082L25.912 24.6322C27.0213 23.9709 28.2213 23.6402 29.512 23.6402C30.2693 23.6402 30.9627 23.7629 31.592 24.0082C32.2213 24.2536 32.7173 24.6056 33.08 25.0642C33.4533 25.5229 33.64 26.0616 33.64 26.6802C33.64 27.2776 33.4747 27.7949 33.144 28.2322C32.8133 28.6589 32.3493 28.9629 31.752 29.1442ZM39.6839 26.5202C40.7825 26.5202 41.6252 26.7976 42.2119 27.3522C42.7985 27.8962 43.0919 28.7069 43.0919 29.7842V35.0002H42.0039V33.6882C41.7479 34.1256 41.3692 34.4669 40.8679 34.7122C40.3772 34.9576 39.7905 35.0802 39.1079 35.0802C38.1692 35.0802 37.4225 34.8562 36.8679 34.4082C36.3132 33.9602 36.0359 33.3682 36.0359 32.6322C36.0359 31.9176 36.2919 31.3416 36.8039 30.9042C37.3265 30.4669 38.1532 30.2482 39.2839 30.2482H41.9559V29.7362C41.9559 29.0109 41.7532 28.4616 41.3479 28.0882C40.9425 27.7042 40.3505 27.5122 39.5719 27.5122C39.0385 27.5122 38.5265 27.6029 38.0359 27.7842C37.5452 27.9549 37.1239 28.1949 36.7719 28.5042L36.2599 27.6562C36.6865 27.2936 37.1985 27.0162 37.7959 26.8242C38.3932 26.6216 39.0225 26.5202 39.6839 26.5202ZM39.2839 34.1842C39.9239 34.1842 40.4732 34.0402 40.9319 33.7522C41.3905 33.4536 41.7319 33.0269 41.9559 32.4722V31.0962H39.3159C37.8759 31.0962 37.1559 31.5976 37.1559 32.6002C37.1559 33.0909 37.3425 33.4802 37.7159 33.7682C38.0892 34.0456 38.6119 34.1842 39.2839 34.1842ZM49.172 31.2562H47.252V35.0002H46.116V26.5842H47.252V30.2802H49.188L52.148 26.5842H53.38L50.068 30.6642L53.62 35.0002H52.276L49.172 31.2562ZM58.1526 26.5202C59.2513 26.5202 60.094 26.7976 60.6806 27.3522C61.2673 27.8962 61.5606 28.7069 61.5606 29.7842V35.0002H60.4726V33.6882C60.2166 34.1256 59.838 34.4669 59.3366 34.7122C58.846 34.9576 58.2593 35.0802 57.5766 35.0802C56.638 35.0802 55.8913 34.8562 55.3366 34.4082C54.782 33.9602 54.5046 33.3682 54.5046 32.6322C54.5046 31.9176 54.7606 31.3416 55.2726 30.9042C55.7953 30.4669 56.622 30.2482 57.7526 30.2482H60.4246V29.7362C60.4246 29.0109 60.222 28.4616 59.8166 28.0882C59.4113 27.7042 58.8193 27.5122 58.0406 27.5122C57.5073 27.5122 56.9953 27.6029 56.5046 27.7842C56.014 27.9549 55.5926 28.1949 55.2406 28.5042L54.7286 27.6562C55.1553 27.2936 55.6673 27.0162 56.2646 26.8242C56.862 26.6216 57.4913 26.5202 58.1526 26.5202ZM57.7526 34.1842C58.3926 34.1842 58.942 34.0402 59.4006 33.7522C59.8593 33.4536 60.2006 33.0269 60.4246 32.4722V31.0962H57.7846C56.3446 31.0962 55.6246 31.5976 55.6246 32.6002C55.6246 33.0909 55.8113 33.4802 56.1846 33.7682C56.558 34.0456 57.0806 34.1842 57.7526 34.1842ZM68.5089 30.6162C69.1062 30.7549 69.5649 30.9949 69.8849 31.3362C70.2155 31.6776 70.3809 32.0936 70.3809 32.5842C70.3809 33.0749 70.2102 33.5122 69.8689 33.8962C69.5382 34.2802 69.0849 34.5789 68.5089 34.7922C67.9329 34.9949 67.2982 35.0962 66.6049 35.0962C65.9969 35.0962 65.3995 35.0109 64.8129 34.8402C64.2262 34.6589 63.7142 34.3976 63.2769 34.0562L63.6609 33.2082C64.0449 33.4962 64.4929 33.7202 65.0049 33.8802C65.5169 34.0402 66.0342 34.1202 66.5569 34.1202C67.3355 34.1202 67.9702 33.9762 68.4609 33.6882C68.9622 33.3896 69.2129 32.9896 69.2129 32.4882C69.2129 32.0402 69.0102 31.6936 68.6049 31.4482C68.1995 31.1922 67.6449 31.0642 66.9409 31.0642H65.5009V30.2322H66.8769C67.5062 30.2322 68.0129 30.1149 68.3969 29.8802C68.7809 29.6349 68.9729 29.3096 68.9729 28.9042C68.9729 28.4562 68.7542 28.1042 68.3169 27.8482C67.8902 27.5922 67.3302 27.4642 66.6369 27.4642C65.7302 27.4642 64.8342 27.6936 63.9489 28.1522L63.6289 27.2722C64.6315 26.7496 65.6715 26.4882 66.7489 26.4882C67.3889 26.4882 67.9649 26.5842 68.4769 26.7762C68.9995 26.9576 69.4049 27.2189 69.6929 27.5602C69.9915 27.9016 70.1409 28.2962 70.1409 28.7442C70.1409 29.1709 69.9915 29.5496 69.6929 29.8802C69.4049 30.2109 69.0102 30.4562 68.5089 30.6162ZM75.8558 26.5202C76.9544 26.5202 77.7971 26.7976 78.3838 27.3522C78.9704 27.8962 79.2638 28.7069 79.2638 29.7842V35.0002H78.1758V33.6882C77.9198 34.1256 77.5411 34.4669 77.0398 34.7122C76.5491 34.9576 75.9624 35.0802 75.2798 35.0802C74.3411 35.0802 73.5944 34.8562 73.0398 34.4082C72.4851 33.9602 72.2078 33.3682 72.2078 32.6322C72.2078 31.9176 72.4638 31.3416 72.9758 30.9042C73.4984 30.4669 74.3251 30.2482 75.4557 30.2482H78.1278V29.7362C78.1278 29.0109 77.9251 28.4616 77.5198 28.0882C77.1144 27.7042 76.5224 27.5122 75.7438 27.5122C75.2104 27.5122 74.6984 27.6029 74.2078 27.7842C73.7171 27.9549 73.2958 28.1949 72.9438 28.5042L72.4318 27.6562C72.8584 27.2936 73.3704 27.0162 73.9678 26.8242C74.5651 26.6216 75.1944 26.5202 75.8558 26.5202ZM75.4557 34.1842C76.0958 34.1842 76.6451 34.0402 77.1038 33.7522C77.5624 33.4536 77.9038 33.0269 78.1278 32.4722V31.0962H75.4878C74.0478 31.0962 73.3278 31.5976 73.3278 32.6002C73.3278 33.0909 73.5144 33.4802 73.8878 33.7682C74.2611 34.0456 74.7838 34.1842 75.4557 34.1842ZM88.2079 27.5922H85.0239V35.0002H83.8879V27.5922H80.7039V26.5842H88.2079V27.5922ZM93.4664 29.5602C94.5224 29.5709 95.3224 29.8056 95.8664 30.2642C96.421 30.7229 96.6984 31.3842 96.6984 32.2482C96.6984 33.1442 96.3997 33.8322 95.8024 34.3122C95.2157 34.7922 94.3624 35.0269 93.2424 35.0162L89.8504 35.0002V26.5842H90.9864V29.5282L93.4664 29.5602ZM93.1784 34.1522C93.957 34.1629 94.5437 34.0082 94.9384 33.6882C95.3437 33.3576 95.5464 32.8776 95.5464 32.2482C95.5464 31.6296 95.349 31.1709 94.9544 30.8722C94.5597 30.5736 93.9677 30.4189 93.1784 30.4082L90.9864 30.3762V34.1202L93.1784 34.1522ZM107.15 30.6162C107.747 30.7549 108.206 30.9949 108.526 31.3362C108.856 31.6776 109.022 32.0936 109.022 32.5842C109.022 33.0749 108.851 33.5122 108.51 33.8962C108.179 34.2802 107.726 34.5789 107.15 34.7922C106.574 34.9949 105.939 35.0962 105.246 35.0962C104.638 35.0962 104.04 35.0109 103.454 34.8402C102.867 34.6589 102.355 34.3976 101.918 34.0562L102.302 33.2082C102.686 33.4962 103.134 33.7202 103.646 33.8802C104.158 34.0402 104.675 34.1202 105.198 34.1202C105.976 34.1202 106.611 33.9762 107.102 33.6882C107.603 33.3896 107.854 32.9896 107.854 32.4882C107.854 32.0402 107.651 31.6936 107.246 31.4482C106.84 31.1922 106.286 31.0642 105.582 31.0642H104.142V30.2322H105.518C106.147 30.2322 106.654 30.1149 107.038 29.8802C107.422 29.6349 107.614 29.3096 107.614 28.9042C107.614 28.4562 107.395 28.1042 106.958 27.8482C106.531 27.5922 105.971 27.4642 105.278 27.4642C104.371 27.4642 103.475 27.6936 102.59 28.1522L102.27 27.2722C103.272 26.7496 104.312 26.4882 105.39 26.4882C106.03 26.4882 106.606 26.5842 107.118 26.7762C107.64 26.9576 108.046 27.2189 108.334 27.5602C108.632 27.9016 108.782 28.2962 108.782 28.7442C108.782 29.1709 108.632 29.5496 108.334 29.8802C108.046 30.2109 107.651 30.4562 107.15 30.6162ZM116.96 30.6482C118.102 30.9149 118.672 31.6029 118.672 32.7122C118.672 33.4482 118.4 34.0136 117.856 34.4082C117.312 34.8029 116.502 35.0002 115.424 35.0002H111.6V26.5842H115.312C116.272 26.5842 117.024 26.7709 117.568 27.1442C118.112 27.5176 118.384 28.0509 118.384 28.7442C118.384 29.2029 118.256 29.5976 118 29.9282C117.755 30.2482 117.408 30.4882 116.96 30.6482ZM112.704 30.3282H115.232C115.883 30.3282 116.379 30.2056 116.72 29.9602C117.072 29.7149 117.248 29.3576 117.248 28.8882C117.248 28.4189 117.072 28.0669 116.72 27.8322C116.379 27.5976 115.883 27.4802 115.232 27.4802H112.704V30.3282ZM115.376 34.1042C116.102 34.1042 116.646 33.9869 117.008 33.7522C117.371 33.5176 117.552 33.1496 117.552 32.6482C117.552 32.1469 117.387 31.7789 117.056 31.5442C116.726 31.2989 116.203 31.1762 115.488 31.1762H112.704V34.1042H115.376ZM124.807 35.0802C123.996 35.0802 123.265 34.8989 122.615 34.5362C121.964 34.1629 121.452 33.6509 121.079 33.0002C120.705 32.3496 120.519 31.6136 120.519 30.7922C120.519 29.9709 120.705 29.2349 121.079 28.5842C121.452 27.9336 121.964 27.4269 122.615 27.0642C123.265 26.7016 123.996 26.5202 124.807 26.5202C125.617 26.5202 126.348 26.7016 126.999 27.0642C127.649 27.4269 128.156 27.9336 128.519 28.5842C128.892 29.2349 129.079 29.9709 129.079 30.7922C129.079 31.6136 128.892 32.3496 128.519 33.0002C128.156 33.6509 127.649 34.1629 126.999 34.5362C126.348 34.8989 125.617 35.0802 124.807 35.0802ZM124.807 34.0722C125.404 34.0722 125.937 33.9389 126.407 33.6722C126.887 33.3949 127.26 33.0056 127.527 32.5042C127.793 32.0029 127.927 31.4322 127.927 30.7922C127.927 30.1522 127.793 29.5816 127.527 29.0802C127.26 28.5789 126.887 28.1949 126.407 27.9282C125.937 27.6509 125.404 27.5122 124.807 27.5122C124.209 27.5122 123.671 27.6509 123.191 27.9282C122.721 28.1949 122.348 28.5789 122.071 29.0802C121.804 29.5816 121.671 30.1522 121.671 30.7922C121.671 31.4322 121.804 32.0029 122.071 32.5042C122.348 33.0056 122.721 33.3949 123.191 33.6722C123.671 33.9389 124.209 34.0722 124.807 34.0722ZM131.507 26.5842H132.643V30.3122H137.939V26.5842H139.075V35.0002H137.939V31.2882H132.643V35.0002H131.507V26.5842ZM145.776 35.0802C144.965 35.0802 144.234 34.8989 143.584 34.5362C142.933 34.1629 142.421 33.6509 142.048 33.0002C141.674 32.3496 141.488 31.6136 141.488 30.7922C141.488 29.9709 141.674 29.2349 142.048 28.5842C142.421 27.9336 142.933 27.4269 143.584 27.0642C144.234 26.7016 144.965 26.5202 145.776 26.5202C146.586 26.5202 147.317 26.7016 147.968 27.0642C148.618 27.4269 149.125 27.9336 149.488 28.5842C149.861 29.2349 150.048 29.9709 150.048 30.7922C150.048 31.6136 149.861 32.3496 149.488 33.0002C149.125 33.6509 148.618 34.1629 147.968 34.5362C147.317 34.8989 146.586 35.0802 145.776 35.0802ZM145.776 34.0722C146.373 34.0722 146.906 33.9389 147.376 33.6722C147.856 33.3949 148.229 33.0056 148.496 32.5042C148.762 32.0029 148.896 31.4322 148.896 30.7922C148.896 30.1522 148.762 29.5816 148.496 29.0802C148.229 28.5789 147.856 28.1949 147.376 27.9282C146.906 27.6509 146.373 27.5122 145.776 27.5122C145.178 27.5122 144.64 27.6509 144.16 27.9282C143.69 28.1949 143.317 28.5789 143.039 29.0802C142.773 29.5816 142.64 30.1522 142.64 30.7922C142.64 31.4322 142.773 32.0029 143.039 32.5042C143.317 33.0056 143.69 33.3949 144.16 33.6722C144.64 33.9389 145.178 34.0722 145.776 34.0722ZM155.531 31.2562H153.611V35.0002H152.475V26.5842H153.611V30.2802H155.547L158.507 26.5842H159.739L156.427 30.6642L159.979 35.0002H158.635L155.531 31.2562Z" fill="white"/>
<rect x="242" y="5" width="47.7198" height="50.0288" fill="#DE774B"/>
<path fill-rule="evenodd" clip-rule="evenodd" d="M265.219 24.4583C265.006 24.4583 264.834 24.286 264.834 24.0735C264.834 23.8609 265.006 23.6886 265.219 23.6886L271.589 23.6886C271.716 23.6886 271.829 23.7502 271.899 23.8452C271.993 23.9153 272.054 24.0276 272.054 24.1541L272.054 30.5245C272.054 30.737 271.882 30.9093 271.67 30.9093C271.457 30.9093 271.285 30.737 271.285 30.5245L271.285 24.8576L259.823 36.3191C259.673 36.4693 259.429 36.4693 259.279 36.3191C259.129 36.1688 259.129 35.9251 259.279 35.7748L270.596 24.4583L265.219 24.4583Z" fill="white"/>
<defs>
<filter id="filter0_d_1_5337" x="0.881459" y="0.440974" width="298.237" height="68.2371" filterUnits="userSpaceOnUse" color-interpolation-filters="sRGB">
<feFlood flood-opacity="0" result="BackgroundImageFix"/>
<feColorMatrix in="SourceAlpha" type="matrix" values="0 0 0 0 0 0 0 0 0 0 0 0 0 0 0 0 0 0 127 0" result="hardAlpha"/>
<feOffset dy="4.55927"/>
<feGaussianBlur stdDeviation="4.55927"/>
<feColorMatrix type="matrix" values="0 0 0 0 0.936135 0 0 0 0 0.546693 0 0 0 0 0.329845 0 0 0 0.2 0"/>
<feBlend mode="normal" in2="BackgroundImageFix" result="effect1_dropShadow_1_5337"/>
<feBlend mode="normal" in="SourceGraphic" in2="effect1_dropShadow_1_5337" result="shape"/>
</filter>
</defs>
</svg>
